<svg width="12" height="12" viewBox="0 0 12 12" fill="none" xmlns="http://www.w3.org/2000/svg">
<path fill-rule="evenodd" clip-rule="evenodd" d="M7.71968 0.219668C7.5 0.439343 7.5 0.792893 7.5 1.5C7.5 2.20711 7.5 2.56066 7.71968 2.78033C7.93935 3 8.2929 3 9 3H10.5C11.2071 3 11.5606 3 11.7803 2.78033C12 2.56066 12 2.20711 12 1.5C12 0.792893 12 0.439343 11.7803 0.219668C11.5606 4.47035e-08 11.2071 0 10.5 0H9C8.2929 0 7.93935 4.47035e-08 7.71968 0.219668ZM0.219668 9.21968C4.47035e-08 9.43935 0 9.7929 0 10.5C0 11.2071 4.47035e-08 11.5606 0.219668 11.7803C0.439343 12 0.792893 12 1.5 12H3C3.70711 12 4.06066 12 4.28033 11.7803C4.5 11.5606 4.5 11.2071 4.5 10.5C4.5 9.7929 4.5 9.43935 4.28033 9.21968C4.06066 9 3.70711 9 3 9H1.5C0.792893 9 0.439343 9 0.219668 9.21968ZM7.5 7.5C7.5 6.7929 7.5 6.43935 7.71968 6.21968C7.93935 6 8.2929 6 9 6H10.5C11.2071 6 11.5606 6 11.7803 6.21968C12 6.43935 12 6.7929 12 7.5V10.5C12 11.2071 12 11.5606 11.7803 11.7803C11.5606 12 11.2071 12 10.5 12H9C8.2929 12 7.93935 12 7.71968 11.7803C7.5 11.5606 7.5 11.2071 7.5 10.5V7.5ZM0.219668 0.219668C4.47035e-08 0.439343 0 0.792893 0 1.5V4.5C0 5.2071 4.47035e-08 5.56065 0.219668 5.78032C0.439343 6 0.792893 6 1.5 6H3C3.70711 6 4.06066 6 4.28033 5.78032C4.5 5.56065 4.5 5.2071 4.5 4.5V1.5C4.5 0.792893 4.5 0.439343 4.28033 0.219668C4.06066 4.47035e-08 3.70711 0 3 0H1.5C0.792893 0 0.439343 4.47035e-08 0.219668 0.219668Z" fill="#909DAD"/>
</svg>
