<svg width="18" height="18" viewBox="0 0 18 18" fill="none" xmlns="http://www.w3.org/2000/svg">
<path fill-rule="evenodd" clip-rule="evenodd" d="M10.7197 3.21967C10.5 3.43934 10.5 3.79289 10.5 4.5C10.5 5.20711 10.5 5.56066 10.7197 5.78033C10.9394 6 11.2929 6 12 6H13.5C14.2071 6 14.5606 6 14.7803 5.78033C15 5.56066 15 5.20711 15 4.5C15 3.79289 15 3.43934 14.7803 3.21967C14.5606 3 14.2071 3 13.5 3H12C11.2929 3 10.9394 3 10.7197 3.21967ZM3.21967 12.2197C3 12.4394 3 12.7929 3 13.5C3 14.2071 3 14.5606 3.21967 14.7803C3.43934 15 3.79289 15 4.5 15H6C6.70711 15 7.06066 15 7.28033 14.7803C7.5 14.5606 7.5 14.2071 7.5 13.5C7.5 12.7929 7.5 12.4394 7.28033 12.2197C7.06066 12 6.70711 12 6 12H4.5C3.79289 12 3.43934 12 3.21967 12.2197ZM10.5 10.5C10.5 9.7929 10.5 9.43935 10.7197 9.21968C10.9394 9 11.2929 9 12 9H13.5C14.2071 9 14.5606 9 14.7803 9.21968C15 9.43935 15 9.7929 15 10.5V13.5C15 14.2071 15 14.5606 14.7803 14.7803C14.5606 15 14.2071 15 13.5 15H12C11.2929 15 10.9394 15 10.7197 14.7803C10.5 14.5606 10.5 14.2071 10.5 13.5V10.5ZM3.21967 3.21967C3 3.43934 3 3.79289 3 4.5V7.5C3 8.2071 3 8.56065 3.21967 8.78032C3.43934 9 3.79289 9 4.5 9H6C6.70711 9 7.06066 9 7.28033 8.78032C7.5 8.56065 7.5 8.2071 7.5 7.5V4.5C7.5 3.79289 7.5 3.43934 7.28033 3.21967C7.06066 3 6.70711 3 6 3H4.5C3.79289 3 3.43934 3 3.21967 3.21967Z" fill="#4C6FFF"/>
<path fill-rule="evenodd" clip-rule="evenodd" d="M3.61743 3.61743L3.61926 3.6164C3.6207 3.61565 3.62319 3.61443 3.62697 3.61288C3.64331 3.60616 3.67959 3.59469 3.752 3.58495C3.91005 3.5637 4.13055 3.56251 4.5 3.56251H6C6.36946 3.56251 6.58996 3.5637 6.74801 3.58495C6.82042 3.59469 6.85669 3.60616 6.87303 3.61288C6.87681 3.61443 6.8793 3.61565 6.88075 3.6164L6.88257 3.61743L6.88361 3.61926C6.88437 3.62071 6.88558 3.6232 6.88713 3.62698C6.89385 3.64331 6.90532 3.67958 6.91506 3.752C6.93631 3.91004 6.9375 4.13055 6.9375 4.50001V7.5C6.9375 7.86945 6.93631 8.08995 6.91506 8.24798C6.90532 8.32043 6.89385 8.35673 6.88713 8.373C6.88558 8.37683 6.88437 8.3793 6.88361 8.38073L6.88257 8.3826L6.88075 8.38358C6.8793 8.3844 6.87681 8.3856 6.87303 8.3871C6.85669 8.39385 6.82042 8.40533 6.74801 8.41508C6.58996 8.4363 6.36946 8.4375 6 8.4375H4.5C4.13055 8.4375 3.91005 8.4363 3.752 8.41508C3.67959 8.40533 3.64331 8.39385 3.62697 8.3871C3.62319 8.3856 3.6207 8.3844 3.61926 8.38358L3.61743 8.3826L3.6164 8.38073C3.61564 8.3793 3.61443 8.37683 3.61287 8.373C3.60615 8.35673 3.59469 8.32043 3.58494 8.24798C3.5637 8.08995 3.5625 7.86945 3.5625 7.5V4.50001C3.5625 4.13055 3.5637 3.91004 3.58494 3.752C3.59469 3.67958 3.60615 3.64331 3.61287 3.62698C3.61443 3.6232 3.61564 3.62071 3.6164 3.61926L3.61743 3.61743ZM4.46644 2.4375C4.4776 2.43751 4.48878 2.43751 4.5 2.43751H6C6.01122 2.43751 6.02241 2.43751 6.03357 2.4375C6.35817 2.43747 6.6558 2.43743 6.89791 2.46998C7.16452 2.50583 7.44631 2.59016 7.67805 2.82193C7.90988 3.05369 7.99418 3.33549 8.03003 3.6021C8.06258 3.84421 8.06258 4.14184 8.0625 4.46645C8.0625 4.47761 8.0625 4.48879 8.0625 4.50001V7.5C8.0625 7.51125 8.0625 7.52243 8.0625 7.5336C8.06258 7.8582 8.06258 8.1558 8.03003 8.3979C7.99418 8.66453 7.90988 8.9463 7.67805 9.17805C7.44631 9.40988 7.16452 9.49418 6.89791 9.53003C6.6558 9.56258 6.35817 9.56258 6.03356 9.5625C6.02241 9.5625 6.01122 9.5625 6 9.5625H4.5C4.48878 9.5625 4.4776 9.5625 4.46645 9.5625C4.14183 9.56258 3.8442 9.56258 3.6021 9.53003C3.33549 9.49418 3.0537 9.40988 2.82192 9.17805C2.59016 8.9463 2.50582 8.66453 2.46998 8.3979C2.43743 8.1558 2.43746 7.8582 2.4375 7.5336C2.4375 7.52243 2.4375 7.51125 2.4375 7.5V4.50001C2.4375 4.48879 2.4375 4.4776 2.4375 4.46645C2.43746 4.14183 2.43743 3.84421 2.46998 3.6021C2.50582 3.33549 2.59016 3.05369 2.82192 2.82193C3.0537 2.59016 3.33549 2.50583 3.6021 2.46998C3.8442 2.43743 4.14183 2.43747 4.46644 2.4375ZM11.1193 3.6164L11.1174 3.61743L11.1164 3.61926C11.1157 3.62071 11.1144 3.6232 11.1129 3.62698C11.1062 3.64331 11.0947 3.67958 11.0849 3.752C11.0637 3.91004 11.0625 4.13055 11.0625 4.50001C11.0625 4.86946 11.0637 5.08997 11.0849 5.24801C11.0947 5.32043 11.1062 5.3567 11.1129 5.37303C11.1135 5.37455 11.1146 5.37698 11.1146 5.37698C11.1153 5.37864 11.1164 5.38076 11.1164 5.38076L11.1174 5.38258L11.1193 5.38362C11.1207 5.38437 11.1232 5.38558 11.127 5.38714C11.1433 5.39386 11.1796 5.40533 11.252 5.41506C11.4101 5.43631 11.6306 5.43751 12 5.43751H13.5C13.8695 5.43751 14.09 5.43631 14.248 5.41506C14.3204 5.40533 14.3567 5.39386 14.373 5.38714C14.3768 5.38558 14.3793 5.38437 14.3807 5.38362L14.3826 5.38258L14.3836 5.38076C14.3843 5.3793 14.3856 5.37682 14.3871 5.37303C14.3939 5.3567 14.4053 5.32043 14.4151 5.24801C14.4363 5.08997 14.4375 4.86946 14.4375 4.50001C14.4375 4.13055 14.4363 3.91004 14.4151 3.752C14.4053 3.67958 14.3939 3.64331 14.3871 3.62698C14.3856 3.6232 14.3843 3.62071 14.3836 3.61926L14.3826 3.61743L14.3807 3.6164C14.3793 3.61565 14.3768 3.61443 14.373 3.61288C14.3567 3.60616 14.3204 3.59469 14.248 3.58495C14.09 3.5637 13.8695 3.56251 13.5 3.56251H12C11.6306 3.56251 11.4101 3.5637 11.252 3.58495C11.1796 3.59469 11.1433 3.60616 11.127 3.61288C11.1232 3.61443 11.1207 3.61565 11.1193 3.6164ZM11.9665 2.4375H13.5335C13.8582 2.43747 14.1558 2.43743 14.3979 2.46998C14.6645 2.50583 14.9463 2.59016 15.1781 2.82193C15.4099 3.05369 15.4942 3.33549 15.53 3.6021C15.5626 3.84421 15.5626 4.14183 15.5625 4.46645V4.53357C15.5626 4.85818 15.5626 5.1558 15.53 5.39791C15.4942 5.66453 15.4099 5.94632 15.1781 6.17808C14.9463 6.40986 14.6645 6.49418 14.3979 6.53004C14.1558 6.56258 13.8582 6.56255 13.5335 6.56251H11.9665C11.6418 6.56255 11.3442 6.56258 11.1021 6.53004C10.8355 6.49418 10.5537 6.40986 10.322 6.17808C10.0901 5.94632 10.0058 5.66453 9.96998 5.39791C9.93743 5.1558 9.93743 4.85818 9.9375 4.53357C9.9375 4.52241 9.9375 4.51122 9.9375 4.50001C9.9375 4.48879 9.9375 4.47761 9.9375 4.46645C9.93743 4.14184 9.93743 3.84421 9.96998 3.6021C10.0058 3.33549 10.0901 3.05369 10.322 2.82193C10.5537 2.59016 10.8355 2.50583 11.1021 2.46998C11.3442 2.43743 11.6418 2.43747 11.9665 2.4375ZM11.9665 8.4375H13.5335C13.8582 8.4375 14.1558 8.43743 14.3979 8.46998C14.6645 8.50583 14.9463 8.59013 15.1781 8.82195C15.4099 9.0537 15.4942 9.33548 15.53 9.6021C15.5626 9.8442 15.5626 10.1418 15.5625 10.4665V13.5336C15.5626 13.8582 15.5626 14.1558 15.53 14.3979C15.4942 14.6645 15.4099 14.9463 15.1781 15.1781C14.9463 15.4099 14.6645 15.4942 14.3979 15.53C14.1558 15.5626 13.8582 15.5626 13.5335 15.5625H11.9665C11.6418 15.5626 11.3442 15.5626 11.1021 15.53C10.8355 15.4942 10.5537 15.4099 10.322 15.1781C10.0901 14.9463 10.0058 14.6645 9.96998 14.3979C9.93743 14.1558 9.93743 13.8582 9.9375 13.5336V10.5C9.9375 10.4888 9.9375 10.4776 9.9375 10.4665C9.93743 10.1418 9.93743 9.8442 9.96998 9.6021C10.0058 9.33548 10.0901 9.0537 10.322 8.82195C10.5537 8.59013 10.8355 8.50583 11.1021 8.46998C11.3442 8.43743 11.6418 8.4375 11.9665 8.4375ZM11.1193 9.61643L11.1174 9.6174L11.1164 9.61928C11.1157 9.6207 11.1144 9.62318 11.1129 9.627C11.1062 9.64335 11.0947 9.67958 11.0849 9.75203C11.0637 9.91005 11.0625 10.1306 11.0625 10.5V13.5C11.0625 13.8695 11.0637 14.09 11.0849 14.248C11.0947 14.3204 11.1062 14.3567 11.1129 14.373C11.1144 14.3768 11.1157 14.3793 11.1164 14.3807L11.1174 14.3826L11.1193 14.3836C11.1207 14.3844 11.1232 14.3856 11.127 14.3871C11.1433 14.3939 11.1796 14.4053 11.252 14.4151C11.4101 14.4363 11.6306 14.4375 12 14.4375H13.5C13.8695 14.4375 14.09 14.4363 14.248 14.4151C14.3204 14.4053 14.3567 14.3939 14.373 14.3871C14.3768 14.3856 14.3793 14.3844 14.3807 14.3836L14.3826 14.3826L14.3836 14.3807C14.3843 14.3793 14.3856 14.3768 14.3871 14.373C14.3939 14.3567 14.4053 14.3204 14.4151 14.248C14.4363 14.09 14.4375 13.8695 14.4375 13.5V10.5C14.4375 10.1306 14.4363 9.91005 14.4151 9.75203C14.4053 9.67958 14.3939 9.64335 14.3871 9.627C14.3862 9.62475 14.3854 9.62295 14.3848 9.62153L14.3836 9.61928L14.3826 9.6174L14.3807 9.61643C14.3793 9.61568 14.3768 9.6144 14.373 9.6129C14.3567 9.60615 14.3204 9.59468 14.248 9.58493C14.09 9.5637 13.8695 9.5625 13.5 9.5625H12C11.6306 9.5625 11.4101 9.5637 11.252 9.58493C11.1796 9.59468 11.1433 9.60615 11.127 9.6129C11.1232 9.6144 11.1207 9.61568 11.1193 9.61643ZM3.61926 12.6164L3.61743 12.6174L3.6164 12.6193C3.61564 12.6207 3.61443 12.6232 3.61287 12.627C3.60615 12.6434 3.59468 12.6796 3.58494 12.752C3.5637 12.9101 3.5625 13.1306 3.5625 13.5C3.5625 13.8695 3.5637 14.09 3.58494 14.248C3.59468 14.3204 3.60615 14.3567 3.61287 14.373C3.61443 14.3768 3.61564 14.3793 3.6164 14.3807L3.61743 14.3826L3.61926 14.3836C3.6207 14.3844 3.62319 14.3856 3.62697 14.3871C3.64331 14.3939 3.67959 14.4053 3.752 14.4151C3.91005 14.4363 4.13055 14.4375 4.5 14.4375H6C6.36946 14.4375 6.58996 14.4363 6.74801 14.4151C6.82042 14.4053 6.85669 14.3939 6.87303 14.3871C6.87494 14.3864 6.8778 14.3851 6.8778 14.3851L6.88075 14.3836L6.88257 14.3826L6.88361 14.3807L6.8847 14.3786C6.88537 14.3771 6.88619 14.3753 6.88713 14.373C6.89385 14.3567 6.90532 14.3204 6.91506 14.248C6.93631 14.09 6.9375 13.8695 6.9375 13.5C6.9375 13.1306 6.93631 12.9101 6.91506 12.752C6.90532 12.6796 6.89385 12.6434 6.88713 12.627C6.88558 12.6232 6.88437 12.6207 6.88361 12.6193L6.88257 12.6174L6.88075 12.6164C6.8793 12.6157 6.87681 12.6144 6.87303 12.6129C6.85669 12.6062 6.82042 12.5947 6.74801 12.5849C6.58996 12.5637 6.36946 12.5625 6 12.5625H4.5C4.13055 12.5625 3.91005 12.5637 3.752 12.5849C3.67959 12.5947 3.64331 12.6062 3.62697 12.6129C3.62319 12.6144 3.6207 12.6157 3.61926 12.6164ZM4.46645 11.4375H6.03356C6.35817 11.4375 6.6558 11.4374 6.89791 11.47C7.16452 11.5058 7.44631 11.5901 7.67805 11.822C7.90988 12.0537 7.99418 12.3355 8.03003 12.6021C8.06258 12.8442 8.06258 13.1418 8.0625 13.4665V13.5336C8.06258 13.8582 8.06258 14.1558 8.03003 14.3979C7.99418 14.6645 7.90988 14.9463 7.67805 15.1781C7.44631 15.4099 7.16452 15.4942 6.89791 15.53C6.6558 15.5626 6.35817 15.5626 6.03356 15.5625H4.46644C4.14183 15.5626 3.8442 15.5626 3.6021 15.53C3.33549 15.4942 3.0537 15.4099 2.82192 15.1781C2.59016 14.9463 2.50582 14.6645 2.46998 14.3979C2.43743 14.1558 2.43746 13.8582 2.4375 13.5336V13.4665C2.43746 13.1418 2.43743 12.8442 2.46998 12.6021C2.50582 12.3355 2.59016 12.0537 2.82192 11.822C3.0537 11.5901 3.33549 11.5058 3.6021 11.47C3.8442 11.4374 4.14183 11.4375 4.46645 11.4375Z" fill="#4C6FFF"/>
</svg>
