<svg width="297" height="97" viewBox="0 0 297 97" fill="none" xmlns="http://www.w3.org/2000/svg">
<rect width="297" height="97" rx="18.1864" fill="url(#paint0_linear_2126_33921)"/>
<path d="M217.05 45.2218C216.549 45.2218 216.097 45.3088 215.695 45.4829C215.297 45.6528 214.957 45.9014 214.676 46.2288C214.398 46.552 214.185 46.9437 214.035 47.4036C213.886 47.8636 213.812 48.3816 213.812 48.9577C213.812 49.7202 213.93 50.3832 214.166 50.9468C214.406 51.5062 214.763 51.9393 215.235 52.246C215.712 52.5526 216.306 52.7059 217.019 52.7059C217.425 52.7059 217.806 52.6728 218.163 52.6065C218.523 52.536 218.873 52.449 219.213 52.3454V53.2654C218.882 53.3897 218.534 53.4809 218.169 53.5389C217.804 53.6011 217.371 53.6321 216.87 53.6321C215.946 53.6321 215.173 53.4415 214.551 53.0603C213.934 52.6749 213.47 52.132 213.159 51.4317C212.852 50.7313 212.699 49.9046 212.699 48.9514C212.699 48.2635 212.794 47.6357 212.985 47.068C213.18 46.4961 213.461 46.003 213.83 45.5886C214.203 45.1742 214.659 44.8551 215.198 44.6313C215.741 44.4034 216.362 44.2894 217.063 44.2894C217.523 44.2894 217.966 44.335 218.393 44.4262C218.82 44.5173 219.205 44.6479 219.549 44.8178L219.126 45.7129C218.836 45.5803 218.517 45.4663 218.169 45.371C217.825 45.2715 217.452 45.2218 217.05 45.2218ZM223.577 46.5831C224.389 46.5831 224.992 46.7655 225.386 47.1301C225.78 47.4948 225.976 48.0771 225.976 48.8769V53.5078H225.224L225.025 52.5008H224.976C224.785 52.7495 224.586 52.9587 224.379 53.1286C224.172 53.2944 223.931 53.4208 223.658 53.5078C223.388 53.5907 223.057 53.6321 222.663 53.6321C222.249 53.6321 221.88 53.5596 221.557 53.4146C221.238 53.2695 220.985 53.0499 220.798 52.7557C220.616 52.4614 220.525 52.0885 220.525 51.6368C220.525 50.9572 220.794 50.435 221.333 50.0703C221.872 49.7057 222.692 49.5067 223.795 49.4736L224.969 49.4239V49.0074C224.969 48.4189 224.843 48.0066 224.59 47.7704C224.337 47.5342 223.981 47.4161 223.521 47.4161C223.165 47.4161 222.825 47.4679 222.502 47.5715C222.178 47.6751 221.872 47.7973 221.582 47.9382L221.265 47.155C221.571 46.9975 221.924 46.8629 222.321 46.751C222.719 46.6391 223.138 46.5831 223.577 46.5831ZM224.957 50.1511L223.919 50.1947C223.069 50.2278 222.471 50.3666 222.122 50.6111C221.774 50.8556 221.6 51.2017 221.6 51.6492C221.6 52.0388 221.718 52.3268 221.955 52.5132C222.191 52.6997 222.504 52.793 222.893 52.793C223.498 52.793 223.993 52.6251 224.379 52.2895C224.764 51.9538 224.957 51.4503 224.957 50.779V50.1511ZM231.198 46.5707C231.335 46.5707 231.478 46.579 231.627 46.5956C231.776 46.608 231.909 46.6266 232.025 46.6515L231.894 47.6088C231.782 47.5798 231.658 47.557 231.521 47.5404C231.384 47.5238 231.256 47.5155 231.136 47.5155C230.862 47.5155 230.603 47.5715 230.359 47.6834C230.118 47.7911 229.907 47.9486 229.725 48.1558C229.542 48.3588 229.399 48.6054 229.296 48.8955C229.192 49.1814 229.14 49.5005 229.14 49.8528V53.5078H228.102V46.695H228.96L229.072 47.9507H229.115C229.256 47.6979 229.426 47.4679 229.625 47.2607C229.824 47.0493 230.054 46.8815 230.315 46.7572C230.58 46.6329 230.875 46.5707 231.198 46.5707ZM235.736 53.6321C234.874 53.6321 234.19 53.3379 233.684 52.7495C233.183 52.161 232.932 51.2866 232.932 50.1263C232.932 48.9535 233.189 48.0688 233.703 47.472C234.217 46.8711 234.901 46.5707 235.754 46.5707C236.115 46.5707 236.43 46.6184 236.699 46.7137C236.968 46.809 237.2 46.9374 237.395 47.0991C237.59 47.2565 237.754 47.4368 237.886 47.6399H237.961C237.944 47.5114 237.928 47.3353 237.911 47.1115C237.895 46.8877 237.886 46.7054 237.886 46.5645V43.8356H238.918V53.5078H238.085L237.93 52.5381H237.886C237.758 52.7412 237.594 52.9256 237.395 53.0913C237.2 53.2571 236.966 53.3897 236.693 53.4892C236.423 53.5845 236.104 53.6321 235.736 53.6321ZM235.897 52.7743C236.627 52.7743 237.142 52.5671 237.445 52.1527C237.748 51.7383 237.899 51.1229 237.899 50.3065V50.1201C237.899 49.254 237.754 48.5888 237.464 48.1247C237.178 47.6606 236.656 47.4285 235.897 47.4285C235.263 47.4285 234.789 47.673 234.474 48.162C234.159 48.6469 234.001 49.3099 234.001 50.1511C234.001 50.9882 234.157 51.6347 234.468 52.0906C234.782 52.5464 235.259 52.7743 235.897 52.7743ZM244.569 53.5078V44.4199H245.625V52.563H249.66V53.5078H244.569ZM256.939 50.089C256.939 50.6484 256.866 51.1478 256.721 51.5871C256.576 52.0263 256.367 52.3972 256.093 52.6997C255.82 53.0022 255.488 53.2343 255.099 53.3959C254.713 53.5534 254.276 53.6321 253.787 53.6321C253.331 53.6321 252.913 53.5534 252.531 53.3959C252.154 53.2343 251.827 53.0022 251.549 52.6997C251.276 52.3972 251.062 52.0263 250.909 51.5871C250.76 51.1478 250.685 50.6484 250.685 50.089C250.685 49.3431 250.812 48.709 251.064 48.1869C251.317 47.6606 251.678 47.2607 252.146 46.9872C252.618 46.7095 253.18 46.5707 253.831 46.5707C254.452 46.5707 254.995 46.7095 255.459 46.9872C255.927 47.2648 256.29 47.6668 256.547 48.1931C256.808 48.7152 256.939 49.3472 256.939 50.089ZM251.754 50.089C251.754 50.636 251.827 51.1105 251.972 51.5125C252.117 51.9144 252.341 52.2252 252.643 52.4449C252.946 52.6645 253.335 52.7743 253.812 52.7743C254.284 52.7743 254.672 52.6645 254.974 52.4449C255.281 52.2252 255.507 51.9144 255.652 51.5125C255.797 51.1105 255.869 50.636 255.869 50.089C255.869 49.5461 255.797 49.0778 255.652 48.6842C255.507 48.2863 255.283 47.9797 254.98 47.7642C254.678 47.5487 254.286 47.4409 253.806 47.4409C253.097 47.4409 252.577 47.6751 252.245 48.1434C251.918 48.6116 251.754 49.2602 251.754 50.089ZM260.625 56.5661C259.73 56.5661 259.04 56.3983 258.555 56.0626C258.07 55.7311 257.827 55.2649 257.827 54.664C257.827 54.2372 257.962 53.8725 258.231 53.57C258.505 53.2675 258.882 53.0665 259.363 52.967C259.185 52.8841 259.031 52.7598 258.903 52.5941C258.778 52.4283 258.716 52.2377 258.716 52.0222C258.716 51.7735 258.785 51.556 258.921 51.3695C259.062 51.1789 259.276 50.9965 259.562 50.8225C259.205 50.6774 258.915 50.4329 258.691 50.089C258.472 49.7409 258.362 49.3368 258.362 48.8769C258.362 48.3879 258.464 47.9714 258.667 47.6274C258.87 47.2793 259.164 47.0141 259.549 46.8318C259.935 46.6494 260.401 46.5583 260.948 46.5583C261.068 46.5583 261.188 46.5645 261.308 46.5769C261.433 46.5852 261.551 46.5997 261.663 46.6204C261.775 46.637 261.872 46.6577 261.955 46.6826H264.292V47.3477L263.036 47.5031C263.161 47.6647 263.264 47.8595 263.347 48.0874C263.43 48.3153 263.472 48.5681 263.472 48.8458C263.472 49.5254 263.242 50.0662 262.782 50.4682C262.322 50.866 261.69 51.0649 260.886 51.0649C260.695 51.0649 260.5 51.0483 260.301 51.0152C260.098 51.1271 259.943 51.2514 259.835 51.3881C259.732 51.5249 259.68 51.6824 259.68 51.8606C259.68 51.9932 259.719 52.0988 259.798 52.1776C259.881 52.2563 259.999 52.3143 260.152 52.3516C260.306 52.3848 260.49 52.4014 260.705 52.4014H261.905C262.647 52.4014 263.215 52.5568 263.608 52.8676C264.006 53.1784 264.205 53.6321 264.205 54.2289C264.205 54.9831 263.898 55.5612 263.285 55.9632C262.672 56.3651 261.785 56.5661 260.625 56.5661ZM260.656 55.758C261.219 55.758 261.686 55.7 262.054 55.584C262.427 55.4721 262.705 55.3084 262.887 55.0929C263.074 54.8816 263.167 54.6288 263.167 54.3345C263.167 54.061 263.105 53.8538 262.981 53.7129C262.856 53.5762 262.674 53.485 262.434 53.4394C262.193 53.3897 261.899 53.3648 261.551 53.3648H260.37C260.063 53.3648 259.796 53.4125 259.568 53.5078C259.34 53.6031 259.164 53.744 259.04 53.9305C258.919 54.117 258.859 54.3491 258.859 54.6267C258.859 54.9955 259.015 55.2752 259.326 55.4659C259.636 55.6606 260.08 55.758 260.656 55.758ZM260.923 50.3128C261.416 50.3128 261.787 50.1884 262.036 49.9398C262.284 49.6912 262.409 49.3286 262.409 48.852C262.409 48.3423 262.282 47.961 262.029 47.7082C261.777 47.4513 261.404 47.3228 260.911 47.3228C260.438 47.3228 260.074 47.4554 259.817 47.7207C259.564 47.9817 259.437 48.3651 259.437 48.8706C259.437 49.3348 259.566 49.6912 259.823 49.9398C260.08 50.1884 260.446 50.3128 260.923 50.3128ZM271.509 50.089C271.509 50.6484 271.436 51.1478 271.291 51.5871C271.146 52.0263 270.937 52.3972 270.664 52.6997C270.39 53.0022 270.059 53.2343 269.669 53.3959C269.284 53.5534 268.846 53.6321 268.357 53.6321C267.902 53.6321 267.483 53.5534 267.102 53.3959C266.725 53.2343 266.397 53.0022 266.12 52.6997C265.846 52.3972 265.633 52.0263 265.479 51.5871C265.33 51.1478 265.256 50.6484 265.256 50.089C265.256 49.3431 265.382 48.709 265.635 48.1869C265.888 47.6606 266.248 47.2607 266.716 46.9872C267.189 46.7095 267.75 46.5707 268.401 46.5707C269.023 46.5707 269.565 46.7095 270.03 46.9872C270.498 47.2648 270.86 47.6668 271.117 48.1931C271.378 48.7152 271.509 49.3472 271.509 50.089ZM266.325 50.089C266.325 50.636 266.397 51.1105 266.542 51.5125C266.687 51.9144 266.911 52.2252 267.214 52.4449C267.516 52.6645 267.906 52.7743 268.382 52.7743C268.855 52.7743 269.242 52.6645 269.545 52.4449C269.851 52.2252 270.077 51.9144 270.222 51.5125C270.367 51.1105 270.44 50.636 270.44 50.089C270.44 49.5461 270.367 49.0778 270.222 48.6842C270.077 48.2863 269.853 47.9797 269.551 47.7642C269.248 47.5487 268.857 47.4409 268.376 47.4409C267.667 47.4409 267.147 47.6751 266.816 48.1434C266.488 48.6116 266.325 49.2602 266.325 50.089Z" fill="#FEFEFE"/>
<path d="M40.0196 59.3925H26.7124C24.0665 59.3925 21.9219 57.2479 21.9219 54.602V42.3594C21.9219 39.7134 24.0665 37.5688 26.7124 37.5688H40.0196C42.6655 37.5688 44.8101 39.7134 44.8101 42.3594V54.602C44.8101 57.2479 42.6655 59.3925 40.0196 59.3925Z" fill="#E9ECF4" fill-opacity="0.05"/>
<path d="M44.8102 54.1655V54.602C44.8102 56.3468 43.8777 57.8734 42.4836 58.7112C39.5869 56.0397 34.5478 49.9461 38.9668 42.8156C40.0692 41.0372 41.559 39.2945 42.4996 38.2598C42.7508 38.412 42.9866 38.5866 43.2049 38.7819C42.3612 40.6401 40.8947 44.5445 41.3978 48.3349C41.7129 50.7094 43.0729 52.5883 44.8102 54.1655Z" fill="#5ABF73"/>
<path d="M36.6139 45.7501C34.8398 51.0298 37.8536 56.3505 41.0111 59.2893C40.6912 59.3569 40.3596 59.3925 40.0195 59.3925H33.9791C32.4232 57.48 28.7622 51.8219 32.6165 44.5466C34.588 40.8259 38.0804 38.7005 40.5491 37.5981C41.0931 37.6578 41.6094 37.8084 42.0831 38.0346C40.5092 39.5213 37.7062 42.5 36.6139 45.7501Z" fill="white"/>
<path d="M30.1761 46.9642C28.4674 51.3375 30.134 56.573 31.9257 59.3925H26.7125C25.7278 59.3925 24.8128 59.096 24.0521 58.5861C23.662 55.6303 23.1558 48.6255 26.2137 44.0212C28.4307 40.6832 32.2807 38.8634 36.7333 37.5688H39.498C36.5363 38.9203 32.2312 41.7031 30.1761 46.9642Z" fill="#5ABF73"/>
<path d="M61.7533 49.1879C61.7533 50.3577 61.5402 51.3357 61.114 52.1219C60.6877 52.9034 60.0697 53.493 59.2598 53.8908C58.4547 54.2839 57.4767 54.4805 56.3258 54.4805H53.5055V44.0943H56.6384C57.6946 44.0943 58.6039 44.2885 59.3664 44.6769C60.1289 45.0605 60.7162 45.6312 61.1282 46.3889C61.545 47.142 61.7533 48.075 61.7533 49.1879ZM60.4817 49.2306C60.4817 48.2976 60.3254 47.528 60.0128 46.9217C59.705 46.3155 59.2503 45.8656 58.6489 45.572C58.0521 45.2736 57.3204 45.1244 56.4537 45.1244H54.7132V53.4433H56.1838C57.614 53.4433 58.6868 53.0904 59.4019 52.3848C60.1218 51.6791 60.4817 50.6277 60.4817 49.2306ZM70.3137 46.6944V54.4805H69.3476L69.1771 53.3864H69.1132C68.9521 53.6564 68.7437 53.8837 68.488 54.0684C68.2322 54.2531 67.9434 54.3905 67.6213 54.4805C67.304 54.5752 66.9654 54.6225 66.6054 54.6225C65.9897 54.6225 65.4735 54.5231 65.0567 54.3242C64.64 54.1253 64.325 53.8174 64.1119 53.4007C63.9035 52.9839 63.7993 52.4487 63.7993 51.7951V46.6944H64.9928V51.7099C64.9928 52.3587 65.1396 52.8442 65.4332 53.1662C65.7269 53.4835 66.1744 53.6422 66.7759 53.6422C67.3537 53.6422 67.8131 53.5333 68.1541 53.3154C68.4998 53.0975 68.7485 52.7779 68.9 52.3564C69.0516 51.9301 69.1274 51.4091 69.1274 50.7935V46.6944H70.3137ZM75.3221 53.6564C75.5163 53.6564 75.7152 53.6398 75.9188 53.6067C76.1225 53.5735 76.2883 53.5333 76.4161 53.4859V54.4023C76.2788 54.4639 76.087 54.516 75.8407 54.5586C75.5992 54.6012 75.3624 54.6225 75.1303 54.6225C74.7183 54.6225 74.3441 54.5515 74.0078 54.4094C73.6716 54.2626 73.4016 54.0163 73.198 53.6706C72.9991 53.3249 72.8996 52.8465 72.8996 52.2356V47.6179H71.7914V47.0425L72.9067 46.5808L73.3756 44.89H74.086V46.6944H76.3664V47.6179H74.086V52.2001C74.086 52.6879 74.1973 53.0526 74.4199 53.2941C74.6472 53.5356 74.948 53.6564 75.3221 53.6564ZM81.1119 54.6225C80.411 54.6225 79.7929 54.4781 79.2578 54.1892C78.7226 53.9003 78.3058 53.4599 78.0074 52.8678C77.7091 52.2758 77.5599 51.5299 77.5599 50.6301C77.5599 49.6876 77.7162 48.918 78.0288 48.3212C78.3461 47.7198 78.7818 47.2746 79.3359 46.9857C79.89 46.6968 80.5199 46.5523 81.2256 46.5523C81.6139 46.5523 81.9881 46.5926 82.348 46.6731C82.7127 46.7489 83.0111 46.846 83.2431 46.9644L82.8879 47.9518C82.6511 47.8571 82.3764 47.7719 82.0639 47.6961C81.756 47.6203 81.4671 47.5824 81.1972 47.5824C80.6573 47.5824 80.2073 47.6985 79.8474 47.9305C79.4922 48.1626 79.2246 48.5036 79.0446 48.9535C78.8694 49.4034 78.7818 49.9575 78.7818 50.6159C78.7818 51.2458 78.867 51.7833 79.0375 52.2285C79.2128 52.6737 79.4709 53.0147 79.8119 53.2515C80.1576 53.4835 80.5886 53.5996 81.1048 53.5996C81.5168 53.5996 81.8886 53.5569 82.2201 53.4717C82.5517 53.3817 82.8524 53.2775 83.1224 53.1591V54.2105C82.8619 54.3431 82.5706 54.4449 82.2486 54.516C81.9312 54.587 81.5524 54.6225 81.1119 54.6225ZM86.1487 43.4265V46.7299C86.1487 46.9194 86.144 47.1112 86.1345 47.3054C86.125 47.4948 86.1084 47.67 86.0848 47.8311H86.1629C86.3239 47.5564 86.5276 47.3267 86.7739 47.142C87.0249 46.9525 87.309 46.8105 87.6263 46.7157C87.9437 46.6163 88.2799 46.5665 88.6351 46.5665C89.2603 46.5665 89.7812 46.666 90.198 46.8649C90.6195 47.0638 90.9345 47.3717 91.1428 47.7884C91.356 48.2052 91.4625 48.7451 91.4625 49.4082V54.4805H90.2975V49.4863C90.2975 48.8375 90.1483 48.352 89.8499 48.03C89.5563 47.7079 89.104 47.5469 88.493 47.5469C87.9152 47.5469 87.4535 47.6582 87.1077 47.8808C86.7667 48.0987 86.5205 48.4207 86.3689 48.8469C86.2221 49.2732 86.1487 49.7942 86.1487 50.4098V54.4805H84.9694V43.4265H86.1487ZM105.969 54.4805H104.577L98.9147 45.7567H98.8579C98.8721 45.9887 98.8886 46.254 98.9076 46.5523C98.9265 46.846 98.9407 47.1609 98.9502 47.4972C98.9644 47.8287 98.9715 48.1673 98.9715 48.5131V54.4805H97.8491V44.0943H99.2344L104.875 52.7897H104.925C104.915 52.6239 104.903 52.3895 104.889 52.0864C104.875 51.7786 104.861 51.4494 104.847 51.0989C104.837 50.7437 104.832 50.4146 104.832 50.1115V44.0943H105.969V54.4805ZM109.805 46.6944V54.4805H108.626V46.6944H109.805ZM109.23 43.7818C109.424 43.7818 109.59 43.8457 109.727 43.9736C109.869 44.0967 109.94 44.2909 109.94 44.5561C109.94 44.8166 109.869 45.0108 109.727 45.1386C109.59 45.2665 109.424 45.3304 109.23 45.3304C109.026 45.3304 108.856 45.2665 108.718 45.1386C108.586 45.0108 108.519 44.8166 108.519 44.5561C108.519 44.2909 108.586 44.0967 108.718 43.9736C108.856 43.8457 109.026 43.7818 109.23 43.7818ZM114.48 57.9757C113.457 57.9757 112.668 57.7839 112.114 57.4002C111.56 57.0214 111.283 56.4886 111.283 55.8018C111.283 55.314 111.437 54.8972 111.745 54.5515C112.057 54.2058 112.488 53.9761 113.038 53.8624C112.834 53.7677 112.659 53.6256 112.512 53.4362C112.37 53.2467 112.299 53.0289 112.299 52.7826C112.299 52.4984 112.377 52.2498 112.533 52.0367C112.694 51.8188 112.938 51.6104 113.265 51.4115C112.858 51.2458 112.526 50.9663 112.27 50.5732C112.019 50.1754 111.894 49.7136 111.894 49.1879C111.894 48.6291 112.01 48.1531 112.242 47.76C112.474 47.3622 112.81 47.0591 113.251 46.8507C113.691 46.6423 114.224 46.5381 114.849 46.5381C114.986 46.5381 115.124 46.5452 115.261 46.5594C115.403 46.5689 115.538 46.5855 115.666 46.6092C115.794 46.6281 115.905 46.6518 116 46.6802H118.671V47.4403L117.236 47.6179C117.378 47.8027 117.497 48.0252 117.591 48.2857C117.686 48.5462 117.733 48.8351 117.733 49.1524C117.733 49.9291 117.471 50.5472 116.945 51.0066C116.419 51.4612 115.697 51.6886 114.778 51.6886C114.56 51.6886 114.338 51.6696 114.11 51.6317C113.878 51.7596 113.701 51.9017 113.577 52.058C113.459 52.2143 113.4 52.3942 113.4 52.5979C113.4 52.7494 113.445 52.8702 113.535 52.9602C113.63 53.0502 113.765 53.1165 113.94 53.1591C114.115 53.197 114.326 53.2159 114.572 53.2159H115.943C116.791 53.2159 117.44 53.3935 117.89 53.7488C118.344 54.104 118.572 54.6225 118.572 55.3045C118.572 56.1665 118.221 56.8272 117.52 57.2866C116.819 57.746 115.806 57.9757 114.48 57.9757ZM114.515 57.0521C115.159 57.0521 115.692 56.9858 116.114 56.8532C116.54 56.7254 116.857 56.5383 117.066 56.292C117.279 56.0505 117.385 55.7616 117.385 55.4253C117.385 55.1127 117.314 54.8759 117.172 54.7149C117.03 54.5586 116.822 54.4544 116.547 54.4023C116.272 54.3455 115.936 54.3171 115.538 54.3171H114.188C113.838 54.3171 113.532 54.3715 113.272 54.4805C113.012 54.5894 112.81 54.7504 112.668 54.9635C112.531 55.1767 112.462 55.4419 112.462 55.7592C112.462 56.1807 112.64 56.5004 112.995 56.7182C113.35 56.9408 113.857 57.0521 114.515 57.0521ZM114.821 50.829C115.384 50.829 115.808 50.6869 116.092 50.4027C116.376 50.1186 116.519 49.7042 116.519 49.1595C116.519 48.577 116.374 48.1413 116.085 47.8524C115.796 47.5587 115.37 47.4119 114.806 47.4119C114.267 47.4119 113.85 47.5635 113.556 47.8666C113.267 48.165 113.123 48.603 113.123 49.1808C113.123 49.7113 113.27 50.1186 113.563 50.4027C113.857 50.6869 114.276 50.829 114.821 50.829ZM123.203 46.5523C123.867 46.5523 124.435 46.6992 124.908 46.9928C125.382 47.2864 125.744 47.6985 125.995 48.2289C126.246 48.7546 126.372 49.3703 126.372 50.076V50.8077H120.994C121.008 51.7217 121.236 52.4179 121.676 52.8963C122.117 53.3746 122.737 53.6138 123.537 53.6138C124.03 53.6138 124.466 53.5688 124.845 53.4788C125.223 53.3888 125.616 53.2562 126.024 53.081V54.1182C125.631 54.2934 125.24 54.4213 124.852 54.5018C124.468 54.5823 124.013 54.6225 123.488 54.6225C122.739 54.6225 122.086 54.471 121.527 54.1679C120.973 53.86 120.542 53.4101 120.234 52.8181C119.926 52.2261 119.772 51.5015 119.772 50.6443C119.772 49.806 119.912 49.0814 120.191 48.4704C120.476 47.8547 120.873 47.3811 121.385 47.0496C121.901 46.7181 122.507 46.5523 123.203 46.5523ZM123.189 47.5185C122.559 47.5185 122.057 47.7245 121.683 48.1365C121.309 48.5486 121.086 49.124 121.015 49.8628H125.136C125.131 49.3987 125.058 48.9914 124.916 48.6409C124.778 48.2857 124.567 48.011 124.283 47.8169C123.999 47.6179 123.634 47.5185 123.189 47.5185ZM131.913 46.5523C132.069 46.5523 132.233 46.5618 132.403 46.5808C132.574 46.595 132.725 46.6163 132.858 46.6447L132.709 47.7387C132.581 47.7056 132.439 47.6795 132.282 47.6606C132.126 47.6416 131.979 47.6322 131.842 47.6322C131.529 47.6322 131.233 47.6961 130.954 47.824C130.679 47.9471 130.438 48.1271 130.229 48.3639C130.021 48.5959 129.858 48.8777 129.739 49.2093C129.621 49.536 129.562 49.9007 129.562 50.3033V54.4805H128.375V46.6944H129.356L129.483 48.1294H129.533C129.694 47.8405 129.888 47.5777 130.116 47.3409C130.343 47.0993 130.606 46.9075 130.904 46.7655C131.207 46.6234 131.544 46.5523 131.913 46.5523ZM135.508 46.6944V54.4805H134.328V46.6944H135.508ZM134.932 43.7818C135.126 43.7818 135.292 43.8457 135.43 43.9736C135.572 44.0967 135.643 44.2909 135.643 44.5561C135.643 44.8166 135.572 45.0108 135.43 45.1386C135.292 45.2665 135.126 45.3304 134.932 45.3304C134.729 45.3304 134.558 45.2665 134.421 45.1386C134.288 45.0108 134.222 44.8166 134.222 44.5561C134.222 44.2909 134.288 44.0967 134.421 43.9736C134.558 43.8457 134.729 43.7818 134.932 43.7818ZM140.921 46.5665C141.849 46.5665 142.538 46.7749 142.988 47.1917C143.438 47.6085 143.663 48.2739 143.663 49.1879V54.4805H142.804L142.576 53.3296H142.519C142.302 53.6138 142.074 53.8529 141.837 54.0471C141.601 54.2366 141.326 54.381 141.013 54.4805C140.706 54.5752 140.327 54.6225 139.877 54.6225C139.403 54.6225 138.982 54.5397 138.612 54.3739C138.248 54.2081 137.959 53.9571 137.745 53.6209C137.537 53.2846 137.433 52.8584 137.433 52.3421C137.433 51.5654 137.741 50.9687 138.356 50.5519C138.972 50.1352 139.91 49.9078 141.17 49.8699L142.512 49.8131V49.3371C142.512 48.6646 142.368 48.1934 142.079 47.9234C141.79 47.6535 141.383 47.5185 140.857 47.5185C140.45 47.5185 140.061 47.5777 139.692 47.6961C139.323 47.8145 138.972 47.9542 138.641 48.1152L138.278 47.2201C138.629 47.0401 139.031 46.8862 139.486 46.7584C139.941 46.6305 140.419 46.5665 140.921 46.5665ZM142.498 50.6443L141.312 50.694C140.341 50.7319 139.656 50.8905 139.259 51.17C138.861 51.4494 138.662 51.8449 138.662 52.3564C138.662 52.8015 138.797 53.1307 139.067 53.3438C139.337 53.5569 139.694 53.6635 140.14 53.6635C140.831 53.6635 141.397 53.4717 141.837 53.0881C142.278 52.7045 142.498 52.129 142.498 51.3618V50.6443ZM149.78 46.5523C150.703 46.5523 151.402 46.7797 151.875 47.2343C152.349 47.6842 152.586 48.4089 152.586 49.4082V54.4805H151.421V49.4863C151.421 48.8375 151.272 48.352 150.973 48.03C150.68 47.7079 150.227 47.5469 149.616 47.5469C148.754 47.5469 148.148 47.7908 147.798 48.2786C147.447 48.7664 147.272 49.4745 147.272 50.4027V54.4805H146.093V46.6944H147.045L147.222 47.8169H147.286C147.452 47.5422 147.663 47.3125 147.919 47.1278C148.174 46.9383 148.461 46.7962 148.778 46.7015C149.095 46.6021 149.429 46.5523 149.78 46.5523ZM158.972 44.0943H161.914C163.211 44.0943 164.187 44.2885 164.84 44.6769C165.494 45.0652 165.821 45.7259 165.821 46.6589C165.821 47.0615 165.743 47.4238 165.586 47.7458C165.435 48.0631 165.212 48.326 164.919 48.5344C164.625 48.7428 164.263 48.8872 163.832 48.9677V49.0388C164.286 49.1098 164.689 49.24 165.039 49.4295C165.39 49.6189 165.664 49.8841 165.863 50.2251C166.062 50.5661 166.162 50.9995 166.162 51.5252C166.162 52.1645 166.013 52.7045 165.714 53.1449C165.421 53.5854 165.004 53.9192 164.464 54.1466C163.924 54.3692 163.285 54.4805 162.546 54.4805H158.972V44.0943ZM160.18 48.5486H162.169C163.074 48.5486 163.699 48.3994 164.045 48.101C164.395 47.8027 164.57 47.3669 164.57 46.7939C164.57 46.2019 164.362 45.7756 163.945 45.5151C163.533 45.2547 162.875 45.1244 161.97 45.1244H160.18V48.5486ZM160.18 49.5645V53.4504H162.34C163.263 53.4504 163.917 53.2704 164.3 52.9105C164.684 52.5458 164.876 52.0556 164.876 51.4399C164.876 51.0468 164.788 50.7106 164.613 50.4312C164.443 50.1517 164.163 49.9386 163.775 49.7918C163.391 49.6402 162.877 49.5645 162.233 49.5645H160.18ZM171.113 46.5665C172.042 46.5665 172.731 46.7749 173.181 47.1917C173.63 47.6085 173.855 48.2739 173.855 49.1879V54.4805H172.996L172.769 53.3296H172.712C172.494 53.6138 172.266 53.8529 172.03 54.0471C171.793 54.2366 171.518 54.381 171.206 54.4805C170.898 54.5752 170.519 54.6225 170.069 54.6225C169.595 54.6225 169.174 54.5397 168.804 54.3739C168.44 54.2081 168.151 53.9571 167.938 53.6209C167.729 53.2846 167.625 52.8584 167.625 52.3421C167.625 51.5654 167.933 50.9687 168.549 50.5519C169.164 50.1352 170.102 49.9078 171.362 49.8699L172.705 49.8131V49.3371C172.705 48.6646 172.56 48.1934 172.271 47.9234C171.982 47.6535 171.575 47.5185 171.049 47.5185C170.642 47.5185 170.254 47.5777 169.884 47.6961C169.515 47.8145 169.164 47.9542 168.833 48.1152L168.471 47.2201C168.821 47.0401 169.224 46.8862 169.678 46.7584C170.133 46.6305 170.611 46.5665 171.113 46.5665ZM172.69 50.6443L171.504 50.694C170.533 50.7319 169.849 50.8905 169.451 51.17C169.053 51.4494 168.854 51.8449 168.854 52.3564C168.854 52.8015 168.989 53.1307 169.259 53.3438C169.529 53.5569 169.887 53.6635 170.332 53.6635C171.023 53.6635 171.589 53.4717 172.03 53.0881C172.47 52.7045 172.69 52.129 172.69 51.3618V50.6443ZM179.972 46.5523C180.896 46.5523 181.594 46.7797 182.068 47.2343C182.541 47.6842 182.778 48.4089 182.778 49.4082V54.4805H181.613V49.4863C181.613 48.8375 181.464 48.352 181.166 48.03C180.872 47.7079 180.42 47.5469 179.809 47.5469C178.947 47.5469 178.34 47.7908 177.99 48.2786C177.64 48.7664 177.464 49.4745 177.464 50.4027V54.4805H176.285V46.6944H177.237L177.415 47.8169H177.479C177.644 47.5422 177.855 47.3125 178.111 47.1278C178.367 46.9383 178.653 46.7962 178.97 46.7015C179.288 46.6021 179.622 46.5523 179.972 46.5523ZM186.38 43.4265V49.1666C186.38 49.3561 186.373 49.5881 186.359 49.8628C186.344 50.1328 186.333 50.372 186.323 50.5803H186.373C186.472 50.4572 186.617 50.2749 186.806 50.0333C187 49.7918 187.164 49.5976 187.296 49.4508L189.882 46.6944H191.267L188.135 50.0191L191.495 54.4805H190.074L187.325 50.7935L186.38 51.6602V54.4805H185.208V43.4265H186.38Z" fill="#FEFEFE"/>
<defs>
<linearGradient id="paint0_linear_2126_33921" x1="-29.2229" y1="112.762" x2="133.664" y2="-113.636" gradientUnits="userSpaceOnUse">
<stop stop-color="#1E1D1D"/>
<stop offset="1" stop-color="#535353"/>
</linearGradient>
</defs>
</svg>
