<svg width="20" height="20" viewBox="0 0 20 20" fill="none" xmlns="http://www.w3.org/2000/svg">
<g clip-path="url(#clip0_2556_45782)">
<path fill-rule="evenodd" clip-rule="evenodd" d="M2.5 4.16667C2.5 3.24619 3.24619 2.5 4.16667 2.5H15.8333C16.7538 2.5 17.5 3.24619 17.5 4.16667V15.8333C17.5 16.7538 16.7538 17.5 15.8333 17.5H4.16667C3.24619 17.5 2.5 16.7538 2.5 15.8333V4.16667ZM11.6157 6.37892C11.3216 5.64352 10.2672 5.68462 10.0309 6.44046L8.57108 11.1121L8.24766 10.4652C8.10509 10.1801 7.81366 10 7.49485 10H5.83333C5.3731 10 5 10.3731 5 10.8333C5 11.2936 5.3731 11.6667 5.83333 11.6667H6.98498L7.9954 13.6875C8.33417 14.3651 9.32558 14.2852 9.55158 13.5622L10.9298 9.15175L11.7242 11.1376C11.852 11.4572 12.1615 11.6667 12.5057 11.6667H14.1667C14.6269 11.6667 15 11.2936 15 10.8333C15 10.3731 14.6269 10 14.1667 10H13.0642L11.6157 6.37892Z" fill="#909DAD"/>
</g>
<defs>
<clipPath id="clip0_2556_45782">
<rect width="20" height="20" fill="white"/>
</clipPath>
</defs>
</svg>
