<svg width="12" height="12" viewBox="0 0 12 12" fill="none" xmlns="http://www.w3.org/2000/svg">
<path d="M9.01703 1.10727H8.24661V0.385196C8.24661 0.172569 8.07405 0 7.86142 0H4.13791C3.92526 0 3.75269 0.172569 3.75269 0.385196V1.10731H2.9823C2.48565 1.10731 2.0835 1.50971 2.0835 2.00612V11.1012C2.0835 11.5976 2.48561 12 2.9823 12H9.01699C9.51361 12 9.91577 11.5976 9.91577 11.1012V2.00608C9.91581 1.50996 9.51365 1.10727 9.01703 1.10727ZM7.02687 2.00608V1.10727V0.770412H7.47628V1.10733V2.00614V2.85665H7.02687V2.00608ZM4.52314 2.00608V1.10727V0.770412H5.9355V1.10733V2.00614V2.85665H4.52314V2.00608ZM4.75861 10.9456C4.75861 11.1585 4.58605 11.3308 4.3734 11.3308H3.75273C3.54008 11.3308 3.36752 11.1585 3.36752 10.9456V10.2825C3.36752 10.0697 3.54008 9.89735 3.75273 9.89735H4.3734C4.58605 9.89735 4.75861 10.0697 4.75861 10.2825V10.9456ZM4.75861 9.00884C4.75861 9.22171 4.58605 9.39404 4.3734 9.39404H3.75273C3.54008 9.39404 3.36752 9.22173 3.36752 9.00884V8.3458C3.36752 8.13294 3.54008 7.96059 3.75273 7.96059H4.3734C4.58605 7.96059 4.75861 8.13292 4.75861 8.3458V9.00884ZM4.75861 7.07235C4.75861 7.28522 4.58605 7.45757 4.3734 7.45757H3.75273C3.54008 7.45757 3.36752 7.28524 3.36752 7.07235V6.40908C3.36752 6.1962 3.54008 6.02386 3.75273 6.02386H4.3734C4.58605 6.02386 4.75861 6.19618 4.75861 6.40908V7.07235ZM6.69532 10.9456C6.69532 11.1585 6.52275 11.3308 6.31012 11.3308H5.6892C5.47655 11.3308 5.30401 11.1585 5.30401 10.9456V10.2825C5.30401 10.0697 5.47655 9.89735 5.6892 9.89735H6.31012C6.52275 9.89735 6.69532 10.0697 6.69532 10.2825V10.9456ZM6.69532 9.00884C6.69532 9.22171 6.52275 9.39404 6.31012 9.39404H5.6892C5.47655 9.39404 5.30401 9.22173 5.30401 9.00884V8.3458C5.30401 8.13294 5.47655 7.96059 5.6892 7.96059H6.31012C6.52275 7.96059 6.69532 8.13292 6.69532 8.3458V9.00884ZM6.69532 7.07235C6.69532 7.28522 6.52275 7.45757 6.31012 7.45757H5.6892C5.47655 7.45757 5.30401 7.28524 5.30401 7.07235V6.40908C5.30401 6.1962 5.47655 6.02386 5.6892 6.02386H6.31012C6.52275 6.02386 6.69532 6.19618 6.69532 6.40908V7.07235ZM8.63187 10.9456C8.63187 11.1585 8.4593 11.3308 8.24665 11.3308H7.62599C7.41336 11.3308 7.24079 11.1585 7.24079 10.9456V10.2825C7.24079 10.0697 7.41336 9.89735 7.62599 9.89735H8.24665C8.45932 9.89735 8.63187 10.0697 8.63187 10.2825V10.9456ZM8.63187 9.00884C8.63187 9.22171 8.4593 9.39404 8.24665 9.39404H7.62599C7.41336 9.39404 7.24079 9.22173 7.24079 9.00884V8.3458C7.24079 8.13294 7.41336 7.96059 7.62599 7.96059H8.24665C8.45932 7.96059 8.63187 8.13292 8.63187 8.3458V9.00884ZM8.63187 7.07235C8.63187 7.28522 8.4593 7.45757 8.24665 7.45757H7.62599C7.41336 7.45757 7.24079 7.28524 7.24079 7.07235V6.40908C7.24079 6.1962 7.41336 6.02386 7.62599 6.02386H8.24665C8.45932 6.02386 8.63187 6.19618 8.63187 6.40908V7.07235ZM8.63187 4.82312C8.63187 5.18647 8.33706 5.48104 7.97371 5.48104H4.0255C3.66214 5.48104 3.36757 5.18647 3.36757 4.82312V4.14339C3.36757 3.77975 3.66214 3.48524 4.0255 3.48524H7.97369C8.33705 3.48524 8.63185 3.7798 8.63185 4.14339V4.82312H8.63187Z" fill="#909DAD"/>
</svg>
