<svg width="297" height="97" viewBox="0 0 297 97" fill="none" xmlns="http://www.w3.org/2000/svg">
<rect width="297" height="97" rx="18.1864" fill="url(#paint0_linear_2126_34074)"/>
<path d="M40.0196 59.3925H26.7124C24.0665 59.3925 21.9219 57.2479 21.9219 54.602V42.3594C21.9219 39.7134 24.0665 37.5688 26.7124 37.5688H40.0196C42.6655 37.5688 44.8101 39.7134 44.8101 42.3594V54.602C44.8101 57.2479 42.6655 59.3925 40.0196 59.3925Z" fill="#E9ECF4" fill-opacity="0.05"/>
<path d="M44.8102 54.1655V54.602C44.8102 56.3468 43.8777 57.8734 42.4836 58.7112C39.5869 56.0397 34.5478 49.9461 38.9668 42.8156C40.0692 41.0372 41.559 39.2945 42.4996 38.2598C42.7508 38.412 42.9866 38.5866 43.2049 38.7819C42.3612 40.6401 40.8947 44.5445 41.3978 48.3349C41.7129 50.7094 43.0729 52.5883 44.8102 54.1655Z" fill="#5ABF73"/>
<path d="M36.6139 45.7501C34.8398 51.0298 37.8536 56.3505 41.0111 59.2893C40.6912 59.3569 40.3596 59.3925 40.0195 59.3925H33.9791C32.4232 57.48 28.7622 51.8219 32.6165 44.5466C34.588 40.8259 38.0804 38.7005 40.5491 37.5981C41.0931 37.6578 41.6094 37.8084 42.0831 38.0346C40.5092 39.5213 37.7062 42.5 36.6139 45.7501Z" fill="white"/>
<path d="M30.1761 46.9642C28.4674 51.3375 30.134 56.573 31.9257 59.3925H26.7125C25.7278 59.3925 24.8128 59.096 24.0521 58.5861C23.662 55.6303 23.1558 48.6255 26.2137 44.0212C28.4307 40.6832 32.2807 38.8634 36.7333 37.5688H39.498C36.5363 38.9203 32.2312 41.7031 30.1761 46.9642Z" fill="#5ABF73"/>
<path d="M61.7533 49.1879C61.7533 50.3577 61.5402 51.3357 61.114 52.1219C60.6877 52.9034 60.0697 53.493 59.2598 53.8908C58.4547 54.2839 57.4767 54.4805 56.3258 54.4805H53.5055V44.0943H56.6384C57.6946 44.0943 58.6039 44.2885 59.3664 44.6769C60.1289 45.0605 60.7162 45.6312 61.1282 46.3889C61.545 47.142 61.7533 48.075 61.7533 49.1879ZM60.4817 49.2306C60.4817 48.2976 60.3254 47.528 60.0128 46.9217C59.705 46.3155 59.2503 45.8656 58.6489 45.572C58.0521 45.2736 57.3204 45.1244 56.4537 45.1244H54.7132V53.4433H56.1838C57.614 53.4433 58.6868 53.0904 59.4019 52.3848C60.1218 51.6791 60.4817 50.6277 60.4817 49.2306ZM70.3137 46.6944V54.4805H69.3476L69.1771 53.3864H69.1132C68.9521 53.6564 68.7437 53.8837 68.488 54.0684C68.2322 54.2531 67.9434 54.3905 67.6213 54.4805C67.304 54.5752 66.9654 54.6225 66.6054 54.6225C65.9897 54.6225 65.4735 54.5231 65.0567 54.3242C64.64 54.1253 64.325 53.8174 64.1119 53.4007C63.9035 52.9839 63.7993 52.4487 63.7993 51.7951V46.6944H64.9928V51.7099C64.9928 52.3587 65.1396 52.8442 65.4332 53.1662C65.7269 53.4835 66.1744 53.6422 66.7759 53.6422C67.3537 53.6422 67.8131 53.5333 68.1541 53.3154C68.4998 53.0975 68.7485 52.7779 68.9 52.3564C69.0516 51.9301 69.1274 51.4091 69.1274 50.7935V46.6944H70.3137ZM75.3221 53.6564C75.5163 53.6564 75.7152 53.6398 75.9188 53.6067C76.1225 53.5735 76.2883 53.5333 76.4161 53.4859V54.4023C76.2788 54.4639 76.087 54.516 75.8407 54.5586C75.5992 54.6012 75.3624 54.6225 75.1303 54.6225C74.7183 54.6225 74.3441 54.5515 74.0078 54.4094C73.6716 54.2626 73.4016 54.0163 73.198 53.6706C72.9991 53.3249 72.8996 52.8465 72.8996 52.2356V47.6179H71.7914V47.0425L72.9067 46.5808L73.3756 44.89H74.086V46.6944H76.3664V47.6179H74.086V52.2001C74.086 52.6879 74.1973 53.0526 74.4199 53.2941C74.6472 53.5356 74.948 53.6564 75.3221 53.6564ZM81.1119 54.6225C80.411 54.6225 79.7929 54.4781 79.2578 54.1892C78.7226 53.9003 78.3058 53.4599 78.0074 52.8678C77.7091 52.2758 77.5599 51.5299 77.5599 50.6301C77.5599 49.6876 77.7162 48.918 78.0288 48.3212C78.3461 47.7198 78.7818 47.2746 79.3359 46.9857C79.89 46.6968 80.5199 46.5523 81.2256 46.5523C81.6139 46.5523 81.9881 46.5926 82.348 46.6731C82.7127 46.7489 83.0111 46.846 83.2431 46.9644L82.8879 47.9518C82.6511 47.8571 82.3764 47.7719 82.0639 47.6961C81.756 47.6203 81.4671 47.5824 81.1972 47.5824C80.6573 47.5824 80.2073 47.6985 79.8474 47.9305C79.4922 48.1626 79.2246 48.5036 79.0446 48.9535C78.8694 49.4034 78.7818 49.9575 78.7818 50.6159C78.7818 51.2458 78.867 51.7833 79.0375 52.2285C79.2128 52.6737 79.4709 53.0147 79.8119 53.2515C80.1576 53.4835 80.5886 53.5996 81.1048 53.5996C81.5168 53.5996 81.8886 53.5569 82.2201 53.4717C82.5517 53.3817 82.8524 53.2775 83.1224 53.1591V54.2105C82.8619 54.3431 82.5706 54.4449 82.2486 54.516C81.9312 54.587 81.5524 54.6225 81.1119 54.6225ZM86.1487 43.4265V46.7299C86.1487 46.9194 86.144 47.1112 86.1345 47.3054C86.125 47.4948 86.1084 47.67 86.0848 47.8311H86.1629C86.3239 47.5564 86.5276 47.3267 86.7739 47.142C87.0249 46.9525 87.309 46.8105 87.6263 46.7157C87.9437 46.6163 88.2799 46.5665 88.6351 46.5665C89.2603 46.5665 89.7812 46.666 90.198 46.8649C90.6195 47.0638 90.9345 47.3717 91.1428 47.7884C91.356 48.2052 91.4625 48.7451 91.4625 49.4082V54.4805H90.2975V49.4863C90.2975 48.8375 90.1483 48.352 89.8499 48.03C89.5563 47.7079 89.104 47.5469 88.493 47.5469C87.9152 47.5469 87.4535 47.6582 87.1077 47.8808C86.7667 48.0987 86.5205 48.4207 86.3689 48.8469C86.2221 49.2732 86.1487 49.7942 86.1487 50.4098V54.4805H84.9694V43.4265H86.1487ZM105.969 54.4805H104.577L98.9147 45.7567H98.8579C98.8721 45.9887 98.8886 46.254 98.9076 46.5523C98.9265 46.846 98.9407 47.1609 98.9502 47.4972C98.9644 47.8287 98.9715 48.1673 98.9715 48.5131V54.4805H97.8491V44.0943H99.2344L104.875 52.7897H104.925C104.915 52.6239 104.903 52.3895 104.889 52.0864C104.875 51.7786 104.861 51.4494 104.847 51.0989C104.837 50.7437 104.832 50.4146 104.832 50.1115V44.0943H105.969V54.4805ZM109.805 46.6944V54.4805H108.626V46.6944H109.805ZM109.23 43.7818C109.424 43.7818 109.59 43.8457 109.727 43.9736C109.869 44.0967 109.94 44.2909 109.94 44.5561C109.94 44.8166 109.869 45.0108 109.727 45.1386C109.59 45.2665 109.424 45.3304 109.23 45.3304C109.026 45.3304 108.856 45.2665 108.718 45.1386C108.586 45.0108 108.519 44.8166 108.519 44.5561C108.519 44.2909 108.586 44.0967 108.718 43.9736C108.856 43.8457 109.026 43.7818 109.23 43.7818ZM114.48 57.9757C113.457 57.9757 112.668 57.7839 112.114 57.4002C111.56 57.0214 111.283 56.4886 111.283 55.8018C111.283 55.314 111.437 54.8972 111.745 54.5515C112.057 54.2058 112.488 53.9761 113.038 53.8624C112.834 53.7677 112.659 53.6256 112.512 53.4362C112.37 53.2467 112.299 53.0289 112.299 52.7826C112.299 52.4984 112.377 52.2498 112.533 52.0367C112.694 51.8188 112.938 51.6104 113.265 51.4115C112.858 51.2458 112.526 50.9663 112.27 50.5732C112.019 50.1754 111.894 49.7136 111.894 49.1879C111.894 48.6291 112.01 48.1531 112.242 47.76C112.474 47.3622 112.81 47.0591 113.251 46.8507C113.691 46.6423 114.224 46.5381 114.849 46.5381C114.986 46.5381 115.124 46.5452 115.261 46.5594C115.403 46.5689 115.538 46.5855 115.666 46.6092C115.794 46.6281 115.905 46.6518 116 46.6802H118.671V47.4403L117.236 47.6179C117.378 47.8027 117.497 48.0252 117.591 48.2857C117.686 48.5462 117.733 48.8351 117.733 49.1524C117.733 49.9291 117.471 50.5472 116.945 51.0066C116.419 51.4612 115.697 51.6886 114.778 51.6886C114.56 51.6886 114.338 51.6696 114.11 51.6317C113.878 51.7596 113.701 51.9017 113.577 52.058C113.459 52.2143 113.4 52.3942 113.4 52.5979C113.4 52.7494 113.445 52.8702 113.535 52.9602C113.63 53.0502 113.765 53.1165 113.94 53.1591C114.115 53.197 114.326 53.2159 114.572 53.2159H115.943C116.791 53.2159 117.44 53.3935 117.89 53.7488C118.344 54.104 118.572 54.6225 118.572 55.3045C118.572 56.1665 118.221 56.8272 117.52 57.2866C116.819 57.746 115.806 57.9757 114.48 57.9757ZM114.515 57.0521C115.159 57.0521 115.692 56.9858 116.114 56.8532C116.54 56.7254 116.857 56.5383 117.066 56.292C117.279 56.0505 117.385 55.7616 117.385 55.4253C117.385 55.1127 117.314 54.8759 117.172 54.7149C117.03 54.5586 116.822 54.4544 116.547 54.4023C116.272 54.3455 115.936 54.3171 115.538 54.3171H114.188C113.838 54.3171 113.532 54.3715 113.272 54.4805C113.012 54.5894 112.81 54.7504 112.668 54.9635C112.531 55.1767 112.462 55.4419 112.462 55.7592C112.462 56.1807 112.64 56.5004 112.995 56.7182C113.35 56.9408 113.857 57.0521 114.515 57.0521ZM114.821 50.829C115.384 50.829 115.808 50.6869 116.092 50.4027C116.376 50.1186 116.519 49.7042 116.519 49.1595C116.519 48.577 116.374 48.1413 116.085 47.8524C115.796 47.5587 115.37 47.4119 114.806 47.4119C114.267 47.4119 113.85 47.5635 113.556 47.8666C113.267 48.165 113.123 48.603 113.123 49.1808C113.123 49.7113 113.27 50.1186 113.563 50.4027C113.857 50.6869 114.276 50.829 114.821 50.829ZM123.203 46.5523C123.867 46.5523 124.435 46.6992 124.908 46.9928C125.382 47.2864 125.744 47.6985 125.995 48.2289C126.246 48.7546 126.372 49.3703 126.372 50.076V50.8077H120.994C121.008 51.7217 121.236 52.4179 121.676 52.8963C122.117 53.3746 122.737 53.6138 123.537 53.6138C124.03 53.6138 124.466 53.5688 124.845 53.4788C125.223 53.3888 125.616 53.2562 126.024 53.081V54.1182C125.631 54.2934 125.24 54.4213 124.852 54.5018C124.468 54.5823 124.013 54.6225 123.488 54.6225C122.739 54.6225 122.086 54.471 121.527 54.1679C120.973 53.86 120.542 53.4101 120.234 52.8181C119.926 52.2261 119.772 51.5015 119.772 50.6443C119.772 49.806 119.912 49.0814 120.191 48.4704C120.476 47.8547 120.873 47.3811 121.385 47.0496C121.901 46.7181 122.507 46.5523 123.203 46.5523ZM123.189 47.5185C122.559 47.5185 122.057 47.7245 121.683 48.1365C121.309 48.5486 121.086 49.124 121.015 49.8628H125.136C125.131 49.3987 125.058 48.9914 124.916 48.6409C124.778 48.2857 124.567 48.011 124.283 47.8169C123.999 47.6179 123.634 47.5185 123.189 47.5185ZM131.913 46.5523C132.069 46.5523 132.233 46.5618 132.403 46.5808C132.574 46.595 132.725 46.6163 132.858 46.6447L132.709 47.7387C132.581 47.7056 132.439 47.6795 132.282 47.6606C132.126 47.6416 131.979 47.6322 131.842 47.6322C131.529 47.6322 131.233 47.6961 130.954 47.824C130.679 47.9471 130.438 48.1271 130.229 48.3639C130.021 48.5959 129.858 48.8777 129.739 49.2093C129.621 49.536 129.562 49.9007 129.562 50.3033V54.4805H128.375V46.6944H129.356L129.483 48.1294H129.533C129.694 47.8405 129.888 47.5777 130.116 47.3409C130.343 47.0993 130.606 46.9075 130.904 46.7655C131.207 46.6234 131.544 46.5523 131.913 46.5523ZM135.508 46.6944V54.4805H134.328V46.6944H135.508ZM134.932 43.7818C135.126 43.7818 135.292 43.8457 135.43 43.9736C135.572 44.0967 135.643 44.2909 135.643 44.5561C135.643 44.8166 135.572 45.0108 135.43 45.1386C135.292 45.2665 135.126 45.3304 134.932 45.3304C134.729 45.3304 134.558 45.2665 134.421 45.1386C134.288 45.0108 134.222 44.8166 134.222 44.5561C134.222 44.2909 134.288 44.0967 134.421 43.9736C134.558 43.8457 134.729 43.7818 134.932 43.7818ZM140.921 46.5665C141.849 46.5665 142.538 46.7749 142.988 47.1917C143.438 47.6085 143.663 48.2739 143.663 49.1879V54.4805H142.804L142.576 53.3296H142.519C142.302 53.6138 142.074 53.8529 141.837 54.0471C141.601 54.2366 141.326 54.381 141.013 54.4805C140.706 54.5752 140.327 54.6225 139.877 54.6225C139.403 54.6225 138.982 54.5397 138.612 54.3739C138.248 54.2081 137.959 53.9571 137.745 53.6209C137.537 53.2846 137.433 52.8584 137.433 52.3421C137.433 51.5654 137.741 50.9687 138.356 50.5519C138.972 50.1352 139.91 49.9078 141.17 49.8699L142.512 49.8131V49.3371C142.512 48.6646 142.368 48.1934 142.079 47.9234C141.79 47.6535 141.383 47.5185 140.857 47.5185C140.45 47.5185 140.061 47.5777 139.692 47.6961C139.323 47.8145 138.972 47.9542 138.641 48.1152L138.278 47.2201C138.629 47.0401 139.031 46.8862 139.486 46.7584C139.941 46.6305 140.419 46.5665 140.921 46.5665ZM142.498 50.6443L141.312 50.694C140.341 50.7319 139.656 50.8905 139.259 51.17C138.861 51.4494 138.662 51.8449 138.662 52.3564C138.662 52.8015 138.797 53.1307 139.067 53.3438C139.337 53.5569 139.694 53.6635 140.14 53.6635C140.831 53.6635 141.397 53.4717 141.837 53.0881C142.278 52.7045 142.498 52.129 142.498 51.3618V50.6443ZM149.78 46.5523C150.703 46.5523 151.402 46.7797 151.875 47.2343C152.349 47.6842 152.586 48.4089 152.586 49.4082V54.4805H151.421V49.4863C151.421 48.8375 151.272 48.352 150.973 48.03C150.68 47.7079 150.227 47.5469 149.616 47.5469C148.754 47.5469 148.148 47.7908 147.798 48.2786C147.447 48.7664 147.272 49.4745 147.272 50.4027V54.4805H146.093V46.6944H147.045L147.222 47.8169H147.286C147.452 47.5422 147.663 47.3125 147.919 47.1278C148.174 46.9383 148.461 46.7962 148.778 46.7015C149.095 46.6021 149.429 46.5523 149.78 46.5523ZM158.972 44.0943H161.914C163.211 44.0943 164.187 44.2885 164.84 44.6769C165.494 45.0652 165.821 45.7259 165.821 46.6589C165.821 47.0615 165.743 47.4238 165.586 47.7458C165.435 48.0631 165.212 48.326 164.919 48.5344C164.625 48.7428 164.263 48.8872 163.832 48.9677V49.0388C164.286 49.1098 164.689 49.24 165.039 49.4295C165.39 49.6189 165.664 49.8841 165.863 50.2251C166.062 50.5661 166.162 50.9995 166.162 51.5252C166.162 52.1645 166.013 52.7045 165.714 53.1449C165.421 53.5854 165.004 53.9192 164.464 54.1466C163.924 54.3692 163.285 54.4805 162.546 54.4805H158.972V44.0943ZM160.18 48.5486H162.169C163.074 48.5486 163.699 48.3994 164.045 48.101C164.395 47.8027 164.57 47.3669 164.57 46.7939C164.57 46.2019 164.362 45.7756 163.945 45.5151C163.533 45.2547 162.875 45.1244 161.97 45.1244H160.18V48.5486ZM160.18 49.5645V53.4504H162.34C163.263 53.4504 163.917 53.2704 164.3 52.9105C164.684 52.5458 164.876 52.0556 164.876 51.4399C164.876 51.0468 164.788 50.7106 164.613 50.4312C164.443 50.1517 164.163 49.9386 163.775 49.7918C163.391 49.6402 162.877 49.5645 162.233 49.5645H160.18ZM171.113 46.5665C172.042 46.5665 172.731 46.7749 173.181 47.1917C173.63 47.6085 173.855 48.2739 173.855 49.1879V54.4805H172.996L172.769 53.3296H172.712C172.494 53.6138 172.266 53.8529 172.03 54.0471C171.793 54.2366 171.518 54.381 171.206 54.4805C170.898 54.5752 170.519 54.6225 170.069 54.6225C169.595 54.6225 169.174 54.5397 168.804 54.3739C168.44 54.2081 168.151 53.9571 167.938 53.6209C167.729 53.2846 167.625 52.8584 167.625 52.3421C167.625 51.5654 167.933 50.9687 168.549 50.5519C169.164 50.1352 170.102 49.9078 171.362 49.8699L172.705 49.8131V49.3371C172.705 48.6646 172.56 48.1934 172.271 47.9234C171.982 47.6535 171.575 47.5185 171.049 47.5185C170.642 47.5185 170.254 47.5777 169.884 47.6961C169.515 47.8145 169.164 47.9542 168.833 48.1152L168.471 47.2201C168.821 47.0401 169.224 46.8862 169.678 46.7584C170.133 46.6305 170.611 46.5665 171.113 46.5665ZM172.69 50.6443L171.504 50.694C170.533 50.7319 169.849 50.8905 169.451 51.17C169.053 51.4494 168.854 51.8449 168.854 52.3564C168.854 52.8015 168.989 53.1307 169.259 53.3438C169.529 53.5569 169.887 53.6635 170.332 53.6635C171.023 53.6635 171.589 53.4717 172.03 53.0881C172.47 52.7045 172.69 52.129 172.69 51.3618V50.6443ZM179.972 46.5523C180.896 46.5523 181.594 46.7797 182.068 47.2343C182.541 47.6842 182.778 48.4089 182.778 49.4082V54.4805H181.613V49.4863C181.613 48.8375 181.464 48.352 181.166 48.03C180.872 47.7079 180.42 47.5469 179.809 47.5469C178.947 47.5469 178.34 47.7908 177.99 48.2786C177.64 48.7664 177.464 49.4745 177.464 50.4027V54.4805H176.285V46.6944H177.237L177.415 47.8169H177.479C177.644 47.5422 177.855 47.3125 178.111 47.1278C178.367 46.9383 178.653 46.7962 178.97 46.7015C179.288 46.6021 179.622 46.5523 179.972 46.5523ZM186.38 43.4265V49.1666C186.38 49.3561 186.373 49.5881 186.359 49.8628C186.344 50.1328 186.333 50.372 186.323 50.5803H186.373C186.472 50.4572 186.617 50.2749 186.806 50.0333C187 49.7918 187.164 49.5976 187.296 49.4508L189.882 46.6944H191.267L188.135 50.0191L191.495 54.4805H190.074L187.325 50.7935L186.38 51.6602V54.4805H185.208V43.4265H186.38Z" fill="#FEFEFE"/>
<path d="M227.887 58.4267C233.666 58.4267 238.35 53.7421 238.35 47.9633C238.35 42.1846 233.666 37.5 227.887 37.5C222.108 37.5 217.424 42.1846 217.424 47.9633C217.424 53.7421 222.108 58.4267 227.887 58.4267Z" fill="#EE312A"/>
<path d="M227.887 52.4272C225.548 47.1249 223.832 42.1719 223.832 42.1719H220.246C220.246 42.1719 222.429 48.5294 226.483 56.4799H229.29C233.345 48.5294 235.527 42.1719 235.527 42.1719H231.941C231.941 42.1719 230.226 47.1249 227.887 52.4272Z" fill="white"/>
<path d="M277.878 51.7614H270.89C270.89 51.7614 271.045 54.1097 274.151 54.1097C275.704 54.1097 277.257 53.6397 277.257 53.6397L277.568 56.1441C277.568 56.1441 276.015 56.7702 273.841 56.7702C270.735 56.7702 267.939 55.2049 267.939 50.8223C267.939 47.3788 270.114 45.1875 273.22 45.1875C277.878 45.1875 278.189 49.8832 277.878 51.7614ZM273.064 47.3788C271.045 47.3788 270.89 49.5701 270.89 49.5701H275.238C275.238 49.5701 275.083 47.3788 273.064 47.3788Z" fill="white"/>
<path d="M253.75 48.0751L254.216 45.5839C254.216 45.5839 250.618 44.4893 247.694 46.5181V56.4824H250.8L250.8 48.3864C252.042 47.4523 253.75 48.0751 253.75 48.0751Z" fill="white"/>
<path d="M245.272 51.7614H238.284C238.284 51.7614 238.439 54.1097 241.545 54.1097C243.098 54.1097 244.651 53.6397 244.651 53.6397L244.961 56.1441C244.961 56.1441 243.409 56.7702 241.234 56.7702C238.128 56.7702 235.333 55.2049 235.333 50.8223C235.333 47.3788 237.507 45.1875 240.613 45.1875C245.272 45.1875 245.583 49.8832 245.272 51.7614ZM240.458 47.3788C238.439 47.3788 238.284 49.5701 238.284 49.5701H242.632C242.632 49.5701 242.477 47.3788 240.458 47.3788Z" fill="white"/>
<path d="M261.322 52.7421C260.354 50.3867 259.572 47.9586 258.986 45.4805L255.871 45.4809C255.871 45.4809 257.428 51.4954 260.076 56.4791H262.567C265.215 51.4954 266.772 45.482 266.772 45.482H263.658C263.071 47.9596 262.29 50.3872 261.322 52.7421Z" fill="white"/>
<defs>
<linearGradient id="paint0_linear_2126_34074" x1="-29.2229" y1="112.762" x2="133.664" y2="-113.636" gradientUnits="userSpaceOnUse">
<stop stop-color="#278181"/>
<stop offset="1" stop-color="#71D8D8"/>
</linearGradient>
</defs>
</svg>
