<svg width="297" height="97" viewBox="0 0 297 97" fill="none" xmlns="http://www.w3.org/2000/svg">
<rect width="297" height="97" rx="18.1864" fill="url(#paint0_linear_2126_33898)"/>
<path d="M248.215 55.9095H244.311L246.752 40.9453H250.656L248.215 55.9095Z" fill="white"/>
<path d="M262.366 41.309C261.596 41.0062 260.375 40.6719 258.865 40.6719C255.009 40.6719 252.294 42.7094 252.278 45.6226C252.246 47.7718 254.222 48.9656 255.699 49.6822C257.21 50.4145 257.723 50.8925 257.723 51.5453C257.708 52.5477 256.503 53.0098 255.379 53.0098C253.82 53.0098 252.985 52.7716 251.716 52.2139L251.202 51.9748L250.655 55.3339C251.571 55.7473 253.258 56.1142 255.009 56.1303C259.106 56.1303 261.773 54.1243 261.804 51.0199C261.82 49.3164 260.777 48.0111 258.527 46.9445C257.162 46.2598 256.326 45.7982 256.326 45.0976C256.342 44.4607 257.033 43.8084 258.574 43.8084C259.843 43.7765 260.776 44.0788 261.482 44.3814L261.835 44.5403L262.366 41.309V41.309V41.309Z" fill="white"/>
<path fill-rule="evenodd" clip-rule="evenodd" d="M269.355 40.9414H272.375L275.524 55.9054H271.91C271.91 55.9054 271.556 54.186 271.444 53.6607H266.431C266.286 54.0584 265.612 55.9054 265.612 55.9054H261.516L267.315 42.183C267.716 41.2118 268.424 40.9414 269.355 40.9414ZM269.114 46.417C269.114 46.417 267.877 49.7442 267.556 50.6039H270.801C270.64 49.8557 269.901 46.2738 269.901 46.2738L269.628 44.9844C269.513 45.3164 269.347 45.7729 269.235 46.0808C269.159 46.2895 269.108 46.4299 269.114 46.417Z" fill="white"/>
<path d="M241.049 40.9453L237.226 51.1494L236.808 49.0799C236.101 46.692 233.884 44.0975 231.41 42.8075L234.912 55.8936H239.041L245.177 40.9453H241.049V40.9453V40.9453Z" fill="white"/>
<path d="M233.676 40.9453H227.394L227.33 41.2477C232.23 42.4895 235.475 45.4828 236.808 49.0806L235.443 42.2032C235.218 41.2475 234.527 40.9768 233.676 40.9453V40.9453Z" fill="white"/>
<path d="M39.9219 59.7363H26.6148C23.9688 59.7363 21.8242 57.5917 21.8242 54.9457V42.7032C21.8242 40.0572 23.9688 37.9126 26.6148 37.9126H39.9219C42.5679 37.9126 44.7125 40.0572 44.7125 42.7032V54.9457C44.7125 57.5917 42.5679 59.7363 39.9219 59.7363Z" fill="#E9ECF4" fill-opacity="0.05"/>
<path d="M44.7126 54.5092V54.9457C44.7126 56.6906 43.78 58.2171 42.386 59.055C39.4893 56.3834 34.4501 50.2898 38.8692 43.1593C39.9715 41.381 41.4614 39.6383 42.4019 38.6035C42.6532 38.7557 42.889 38.9303 43.1072 39.1257C42.2635 40.9839 40.7971 44.8882 41.3001 48.6786C41.6152 51.0531 42.9752 52.9321 44.7126 54.5092Z" fill="#5ABF73"/>
<path d="M36.5163 46.0938C34.7422 51.3736 37.7559 56.6943 40.9135 59.633C40.5936 59.7006 40.2619 59.7363 39.9218 59.7363H33.8814C32.3256 57.8238 28.6645 52.1656 32.5188 44.8903C34.4904 41.1697 37.9827 39.0443 40.4514 37.9419C40.9954 38.0015 41.5117 38.1521 41.9855 38.3784C40.4115 39.865 37.6085 42.8437 36.5163 46.0938Z" fill="white"/>
<path d="M30.0784 47.308C28.3698 51.6812 30.0363 56.9168 31.828 59.7363H26.6148C25.6301 59.7363 24.7151 59.4398 23.9545 58.9299C23.5643 55.9741 23.0581 48.9692 26.1161 44.365C28.333 41.027 32.1831 39.2071 36.6356 37.9126H39.4003C36.4387 39.2641 32.1336 42.0469 30.0784 47.308Z" fill="#5ABF73"/>
<path d="M61.6557 49.5317C61.6557 50.7015 61.4426 51.6795 61.0163 52.4657C60.5901 53.2471 59.972 53.8368 59.1622 54.2346C58.357 54.6277 57.379 54.8242 56.2282 54.8242H53.4079V44.4381H56.5408C57.5969 44.4381 58.5062 44.6323 59.2687 45.0206C60.0312 45.4042 60.6185 45.9749 61.0305 46.7327C61.4473 47.4857 61.6557 48.4187 61.6557 49.5317ZM60.3841 49.5743C60.3841 48.6413 60.2278 47.8717 59.9152 47.2655C59.6074 46.6593 59.1527 46.2094 58.5512 45.9157C57.9545 45.6174 57.2228 45.4682 56.3561 45.4682H54.6156V53.787H56.0861C57.5164 53.787 58.5891 53.4342 59.3042 52.7285C60.0241 52.0229 60.3841 50.9714 60.3841 49.5743ZM70.2161 47.0382V54.8242H69.2499L69.0794 53.7302H69.0155C68.8545 54.0001 68.6461 54.2275 68.3903 54.4122C68.1346 54.5969 67.8457 54.7342 67.5236 54.8242C67.2063 54.9189 66.8677 54.9663 66.5078 54.9663C65.8921 54.9663 65.3758 54.8668 64.9591 54.6679C64.5423 54.469 64.2274 54.1612 64.0142 53.7444C63.8059 53.3276 63.7017 52.7925 63.7017 52.1389V47.0382H64.8951V52.0536C64.8951 52.7025 65.042 53.1879 65.3356 53.51C65.6292 53.8273 66.0768 53.9859 66.6783 53.9859C67.2561 53.9859 67.7155 53.877 68.0564 53.6592C68.4022 53.4413 68.6508 53.1216 68.8024 52.7001C68.9539 52.2739 69.0297 51.7529 69.0297 51.1372V47.0382H70.2161ZM75.2244 54.0001C75.4186 54.0001 75.6175 53.9836 75.8212 53.9504C76.0248 53.9173 76.1906 53.877 76.3185 53.8297V54.7461C76.1811 54.8076 75.9893 54.8597 75.743 54.9024C75.5015 54.945 75.2647 54.9663 75.0326 54.9663C74.6206 54.9663 74.2465 54.8953 73.9102 54.7532C73.5739 54.6064 73.304 54.3601 73.1003 54.0144C72.9014 53.6686 72.802 53.1903 72.802 52.5793V47.9617H71.6937V47.3863L72.8091 46.9245L73.2779 45.2337H73.9883V47.0382H76.2687V47.9617H73.9883V52.5438C73.9883 53.0316 74.0996 53.3963 74.3222 53.6378C74.5496 53.8794 74.8503 54.0001 75.2244 54.0001ZM81.0143 54.9663C80.3133 54.9663 79.6953 54.8219 79.1601 54.533C78.6249 54.2441 78.2082 53.8036 77.9098 53.2116C77.6114 52.6196 77.4622 51.8737 77.4622 50.9738C77.4622 50.0313 77.6185 49.2617 77.9311 48.665C78.2484 48.0635 78.6841 47.6183 79.2382 47.3294C79.7924 47.0405 80.4223 46.8961 81.1279 46.8961C81.5163 46.8961 81.8904 46.9363 82.2504 47.0169C82.615 47.0926 82.9134 47.1897 83.1455 47.3081L82.7903 48.2956C82.5535 48.2009 82.2788 48.1156 81.9662 48.0398C81.6584 47.9641 81.3695 47.9262 81.0995 47.9262C80.5596 47.9262 80.1097 48.0422 79.7497 48.2743C79.3945 48.5063 79.1269 48.8473 78.947 49.2973C78.7717 49.7472 78.6841 50.3013 78.6841 50.9596C78.6841 51.5895 78.7694 52.127 78.9399 52.5722C79.1151 53.0174 79.3732 53.3584 79.7142 53.5952C80.0599 53.8273 80.4909 53.9433 81.0072 53.9433C81.4192 53.9433 81.791 53.9007 82.1225 53.8154C82.454 53.7255 82.7548 53.6213 83.0247 53.5029V54.5543C82.7642 54.6869 82.473 54.7887 82.1509 54.8597C81.8336 54.9308 81.4547 54.9663 81.0143 54.9663ZM86.051 43.7703V47.0737C86.051 47.2631 86.0463 47.4549 86.0368 47.6491C86.0274 47.8386 86.0108 48.0138 85.9871 48.1748H86.0652C86.2263 47.9001 86.4299 47.6704 86.6762 47.4857C86.9272 47.2963 87.2114 47.1542 87.5287 47.0595C87.846 46.96 88.1823 46.9103 88.5375 46.9103C89.1626 46.9103 89.6836 47.0098 90.1004 47.2087C90.5219 47.4076 90.8368 47.7154 91.0452 48.1322C91.2583 48.549 91.3649 49.0889 91.3649 49.7519V54.8242H90.1998V49.8301C90.1998 49.1812 90.0506 48.6958 89.7523 48.3737C89.4586 48.0517 89.0063 47.8907 88.3954 47.8907C87.8176 47.8907 87.3558 48.002 87.0101 48.2245C86.6691 48.4424 86.4228 48.7645 86.2713 49.1907C86.1244 49.6169 86.051 50.1379 86.051 50.7536V54.8242H84.8718V43.7703H86.051ZM105.871 54.8242H104.479L98.817 46.1004H98.7602C98.7744 46.3325 98.791 46.5977 98.8099 46.8961C98.8289 47.1897 98.8431 47.5047 98.8526 47.8409C98.8668 48.1724 98.8739 48.5111 98.8739 48.8568V54.8242H97.7514V44.4381H99.1367L104.777 53.1335H104.827C104.818 52.9677 104.806 52.7333 104.792 52.4302C104.777 52.1223 104.763 51.7932 104.749 51.4427C104.739 51.0875 104.735 50.7583 104.735 50.4552V44.4381H105.871V54.8242ZM109.708 47.0382V54.8242H108.528V47.0382H109.708ZM109.132 44.1255C109.326 44.1255 109.492 44.1894 109.629 44.3173C109.771 44.4404 109.843 44.6346 109.843 44.8998C109.843 45.1603 109.771 45.3545 109.629 45.4824C109.492 45.6103 109.326 45.6742 109.132 45.6742C108.928 45.6742 108.758 45.6103 108.621 45.4824C108.488 45.3545 108.422 45.1603 108.422 44.8998C108.422 44.6346 108.488 44.4404 108.621 44.3173C108.758 44.1894 108.928 44.1255 109.132 44.1255ZM114.382 58.3194C113.359 58.3194 112.57 58.1276 112.016 57.744C111.462 57.3651 111.185 56.8323 111.185 56.1456C111.185 55.6578 111.339 55.241 111.647 54.8953C111.96 54.5495 112.391 54.3198 112.94 54.2062C112.736 54.1114 112.561 53.9694 112.414 53.7799C112.272 53.5905 112.201 53.3726 112.201 53.1263C112.201 52.8422 112.279 52.5935 112.436 52.3804C112.597 52.1626 112.84 51.9542 113.167 51.7553C112.76 51.5895 112.428 51.3101 112.173 50.917C111.922 50.5192 111.796 50.0574 111.796 49.5317C111.796 48.9728 111.912 48.4969 112.144 48.1038C112.376 47.7059 112.713 47.4028 113.153 47.1945C113.593 46.9861 114.126 46.8819 114.751 46.8819C114.889 46.8819 115.026 46.889 115.163 46.9032C115.306 46.9127 115.441 46.9292 115.568 46.9529C115.696 46.9719 115.808 46.9955 115.902 47.024H118.573V47.7841L117.138 47.9617C117.28 48.1464 117.399 48.369 117.494 48.6295C117.588 48.89 117.636 49.1789 117.636 49.4962C117.636 50.2729 117.373 50.8909 116.847 51.3503C116.321 51.805 115.599 52.0323 114.68 52.0323C114.463 52.0323 114.24 52.0134 114.013 51.9755C113.781 52.1034 113.603 52.2454 113.48 52.4017C113.361 52.558 113.302 52.738 113.302 52.9416C113.302 53.0932 113.347 53.214 113.437 53.3039C113.532 53.3939 113.667 53.4602 113.842 53.5029C114.017 53.5408 114.228 53.5597 114.474 53.5597H115.845C116.693 53.5597 117.342 53.7373 117.792 54.0925C118.247 54.4477 118.474 54.9663 118.474 55.6483C118.474 56.5102 118.124 57.1709 117.423 57.6303C116.722 58.0897 115.708 58.3194 114.382 58.3194ZM114.418 57.3959C115.062 57.3959 115.594 57.3296 116.016 57.197C116.442 57.0691 116.76 56.882 116.968 56.6358C117.181 56.3942 117.288 56.1053 117.288 55.7691C117.288 55.4565 117.217 55.2197 117.074 55.0587C116.932 54.9024 116.724 54.7982 116.449 54.7461C116.175 54.6892 115.838 54.6608 115.441 54.6608H114.091C113.74 54.6608 113.435 54.7153 113.174 54.8242C112.914 54.9331 112.713 55.0942 112.57 55.3073C112.433 55.5204 112.364 55.7856 112.364 56.1029C112.364 56.5245 112.542 56.8441 112.897 57.062C113.252 57.2846 113.759 57.3959 114.418 57.3959ZM114.723 51.1727C115.287 51.1727 115.71 51.0306 115.995 50.7465C116.279 50.4623 116.421 50.0479 116.421 49.5033C116.421 48.9207 116.276 48.485 115.988 48.1961C115.699 47.9025 115.272 47.7557 114.709 47.7557C114.169 47.7557 113.752 47.9072 113.459 48.2103C113.17 48.5087 113.025 48.9468 113.025 49.5246C113.025 50.055 113.172 50.4623 113.466 50.7465C113.759 51.0306 114.178 51.1727 114.723 51.1727ZM123.106 46.8961C123.769 46.8961 124.337 47.0429 124.811 47.3365C125.284 47.6302 125.647 48.0422 125.898 48.5726C126.149 49.0983 126.274 49.714 126.274 50.4197V51.1514H120.896C120.911 52.0655 121.138 52.7617 121.578 53.24C122.019 53.7184 122.639 53.9575 123.44 53.9575C123.932 53.9575 124.368 53.9125 124.747 53.8225C125.126 53.7326 125.519 53.6 125.926 53.4247V54.4619C125.533 54.6371 125.142 54.765 124.754 54.8455C124.37 54.926 123.916 54.9663 123.39 54.9663C122.642 54.9663 121.988 54.8147 121.429 54.5116C120.875 54.2038 120.444 53.7539 120.136 53.1619C119.828 52.5699 119.675 51.8452 119.675 50.988C119.675 50.1497 119.814 49.4251 120.094 48.8142C120.378 48.1985 120.776 47.7249 121.287 47.3934C121.803 47.0618 122.41 46.8961 123.106 46.8961ZM123.092 47.8622C122.462 47.8622 121.96 48.0683 121.586 48.4803C121.211 48.8923 120.989 49.4678 120.918 50.2066H125.038C125.033 49.7424 124.96 49.3351 124.818 48.9847C124.681 48.6295 124.47 48.3548 124.186 48.1606C123.901 47.9617 123.537 47.8622 123.092 47.8622ZM131.815 46.8961C131.972 46.8961 132.135 46.9056 132.306 46.9245C132.476 46.9387 132.628 46.96 132.76 46.9884L132.611 48.0825C132.483 48.0493 132.341 48.0233 132.185 48.0043C132.029 47.9854 131.882 47.9759 131.744 47.9759C131.432 47.9759 131.136 48.0398 130.856 48.1677C130.582 48.2909 130.34 48.4708 130.132 48.7076C129.923 48.9397 129.76 49.2215 129.642 49.553C129.523 49.8798 129.464 50.2445 129.464 50.647V54.8242H128.278V47.0382H129.258L129.386 48.4732H129.436C129.597 48.1843 129.791 47.9214 130.018 47.6846C130.245 47.4431 130.508 47.2513 130.807 47.1092C131.11 46.9671 131.446 46.8961 131.815 46.8961ZM135.41 47.0382V54.8242H134.231V47.0382H135.41ZM134.835 44.1255C135.029 44.1255 135.195 44.1894 135.332 44.3173C135.474 44.4404 135.545 44.6346 135.545 44.8998C135.545 45.1603 135.474 45.3545 135.332 45.4824C135.195 45.6103 135.029 45.6742 134.835 45.6742C134.631 45.6742 134.46 45.6103 134.323 45.4824C134.191 45.3545 134.124 45.1603 134.124 44.8998C134.124 44.6346 134.191 44.4404 134.323 44.3173C134.46 44.1894 134.631 44.1255 134.835 44.1255ZM140.823 46.9103C141.752 46.9103 142.441 47.1187 142.891 47.5355C143.341 47.9522 143.566 48.6176 143.566 49.5317V54.8242H142.706L142.479 53.6734H142.422C142.204 53.9575 141.977 54.1967 141.74 54.3909C141.503 54.5803 141.228 54.7248 140.916 54.8242C140.608 54.9189 140.229 54.9663 139.779 54.9663C139.305 54.9663 138.884 54.8834 138.515 54.7177C138.15 54.5519 137.861 54.3009 137.648 53.9646C137.439 53.6284 137.335 53.2021 137.335 52.6859C137.335 51.9092 137.643 51.3124 138.259 50.8957C138.874 50.4789 139.812 50.2516 141.072 50.2137L142.415 50.1569V49.6809C142.415 49.0084 142.27 48.5371 141.981 48.2672C141.692 47.9972 141.285 47.8622 140.759 47.8622C140.352 47.8622 139.964 47.9214 139.594 48.0398C139.225 48.1582 138.874 48.298 138.543 48.459L138.181 47.5639C138.531 47.3839 138.934 47.23 139.388 47.1021C139.843 46.9742 140.321 46.9103 140.823 46.9103ZM142.4 50.988L141.214 51.0378C140.243 51.0756 139.559 51.2343 139.161 51.5137C138.763 51.7932 138.564 52.1886 138.564 52.7001C138.564 53.1453 138.699 53.4744 138.969 53.6876C139.239 53.9007 139.597 54.0073 140.042 54.0073C140.733 54.0073 141.299 53.8154 141.74 53.4318C142.18 53.0482 142.4 52.4728 142.4 51.7055V50.988ZM149.682 46.8961C150.606 46.8961 151.304 47.1234 151.778 47.5781C152.251 48.028 152.488 48.7526 152.488 49.7519V54.8242H151.323V49.8301C151.323 49.1812 151.174 48.6958 150.876 48.3737C150.582 48.0517 150.13 47.8907 149.519 47.8907C148.657 47.8907 148.051 48.1346 147.7 48.6224C147.35 49.1102 147.174 49.8182 147.174 50.7465V54.8242H145.995V47.0382H146.947L147.125 48.1606H147.189C147.354 47.8859 147.565 47.6562 147.821 47.4715C148.077 47.2821 148.363 47.14 148.68 47.0453C148.998 46.9458 149.332 46.8961 149.682 46.8961ZM158.875 44.4381H161.816C163.114 44.4381 164.089 44.6323 164.743 45.0206C165.396 45.409 165.723 46.0696 165.723 47.0026C165.723 47.4052 165.645 47.7675 165.489 48.0896C165.337 48.4069 165.115 48.6697 164.821 48.8781C164.527 49.0865 164.165 49.231 163.734 49.3115V49.3825C164.189 49.4535 164.591 49.5838 164.942 49.7732C165.292 49.9627 165.567 50.2279 165.766 50.5689C165.965 50.9099 166.064 51.3432 166.064 51.8689C166.064 52.5083 165.915 53.0482 165.617 53.4887C165.323 53.9291 164.906 54.263 164.366 54.4903C163.826 54.7129 163.187 54.8242 162.448 54.8242H158.875V44.4381ZM160.082 48.8923H162.072C162.976 48.8923 163.601 48.7431 163.947 48.4448C164.298 48.1464 164.473 47.7107 164.473 47.1376C164.473 46.5456 164.264 46.1194 163.848 45.8589C163.436 45.5984 162.777 45.4682 161.873 45.4682H160.082V48.8923ZM160.082 49.9082V53.7941H162.242C163.166 53.7941 163.819 53.6142 164.203 53.2542C164.586 52.8895 164.778 52.3994 164.778 51.7837C164.778 51.3906 164.691 51.0543 164.515 50.7749C164.345 50.4955 164.065 50.2824 163.677 50.1355C163.293 49.984 162.78 49.9082 162.136 49.9082H160.082ZM171.016 46.9103C171.944 46.9103 172.633 47.1187 173.083 47.5355C173.533 47.9522 173.758 48.6176 173.758 49.5317V54.8242H172.898L172.671 53.6734H172.614C172.396 53.9575 172.169 54.1967 171.932 54.3909C171.695 54.5803 171.421 54.7248 171.108 54.8242C170.8 54.9189 170.421 54.9663 169.971 54.9663C169.498 54.9663 169.076 54.8834 168.707 54.7177C168.342 54.5519 168.053 54.3009 167.84 53.9646C167.632 53.6284 167.528 53.2021 167.528 52.6859C167.528 51.9092 167.835 51.3124 168.451 50.8957C169.067 50.4789 170.004 50.2516 171.264 50.2137L172.607 50.1569V49.6809C172.607 49.0084 172.462 48.5371 172.174 48.2672C171.885 47.9972 171.477 47.8622 170.952 47.8622C170.544 47.8622 170.156 47.9214 169.787 48.0398C169.417 48.1582 169.067 48.298 168.735 48.459L168.373 47.5639C168.723 47.3839 169.126 47.23 169.581 47.1021C170.035 46.9742 170.514 46.9103 171.016 46.9103ZM172.593 50.988L171.406 51.0378C170.435 51.0756 169.751 51.2343 169.353 51.5137C168.955 51.7932 168.757 52.1886 168.757 52.7001C168.757 53.1453 168.891 53.4744 169.161 53.6876C169.431 53.9007 169.789 54.0073 170.234 54.0073C170.926 54.0073 171.492 53.8154 171.932 53.4318C172.372 53.0482 172.593 52.4728 172.593 51.7055V50.988ZM179.874 46.8961C180.798 46.8961 181.496 47.1234 181.97 47.5781C182.444 48.028 182.68 48.7526 182.68 49.7519V54.8242H181.515V49.8301C181.515 49.1812 181.366 48.6958 181.068 48.3737C180.774 48.0517 180.322 47.8907 179.711 47.8907C178.849 47.8907 178.243 48.1346 177.892 48.6224C177.542 49.1102 177.367 49.8182 177.367 50.7465V54.8242H176.187V47.0382H177.139L177.317 48.1606H177.381C177.547 47.8859 177.757 47.6562 178.013 47.4715C178.269 47.2821 178.555 47.14 178.873 47.0453C179.19 46.9458 179.524 46.8961 179.874 46.8961ZM186.282 43.7703V49.5104C186.282 49.6998 186.275 49.9319 186.261 50.2066C186.247 50.4765 186.235 50.7157 186.225 50.9241H186.275C186.375 50.801 186.519 50.6186 186.708 50.3771C186.903 50.1355 187.066 49.9414 187.199 49.7945L189.785 47.0382H191.17L188.037 50.3629L191.397 54.8242H189.976L187.227 51.1372L186.282 52.0039V54.8242H185.11V43.7703H186.282Z" fill="#FEFEFE"/>
<defs>
<linearGradient id="paint0_linear_2126_33898" x1="-29.2229" y1="112.762" x2="133.664" y2="-113.636" gradientUnits="userSpaceOnUse">
<stop stop-color="#1E1D1D"/>
<stop offset="1" stop-color="#535353"/>
</linearGradient>
</defs>
</svg>
